mtllib model_3.mtl
o model_3
v -2.277780055999756 0.9599278569221497 0.30239132046699524 
v -2.277780055999756 1.1599767208099365 0.30239132046699524 
v -2.277780055999756 0.9599278569221497 -0.09790250658988953 
v -2.277780055999756 1.1599767208099365 -0.09790250658988953 
v -2.1777310371398926 0.5598300099372864 0.6030269265174866 
v -2.1777310371398926 0.5598300099372864 0.8023433089256287 
v -2.1777310371398926 0.759878933429718 0.6030269265174866 
v -2.1777310371398926 0.8596835732460022 0.8023433089256287 
v -2.1777310371398926 0.759878933429718 0.5033686757087708 
v -2.1777310371398926 0.8596835732460022 0.7026850581169128 
v -2.1777310371398926 0.8596835732460022 0.5033686757087708 
v -2.1777310371398926 0.9599278569221497 0.7026850581169128 
v -2.1777310371398926 0.9599278569221497 0.6030269265174866 
v -2.1777310371398926 1.2597813606262207 -0.7971708178520203 
v -2.1777310371398926 1.1599767208099365 -0.7971708178520203 
v -2.1777310371398926 1.2597813606262207 -0.09790250658988953 
v -2.1777310371398926 1.1599767208099365 -0.6975125670433044 
v -2.1777310371398926 1.1599767208099365 -0.5978543162345886 
v -2.1777310371398926 1.059732437133789 -0.7971708178520203 
v -2.1777310371398926 1.059732437133789 -0.6975125670433044 
v -2.1777310371398926 0.9599278569221497 -0.7971708178520203 
v -2.1777310371398926 1.059732437133789 -0.5978543162345886 
v -2.1777310371398926 1.059732437133789 -0.4965352714061737 
v -2.1777310371398926 1.1599767208099365 -0.4965352714061737 
v -2.1777310371398926 1.1599767208099365 -0.3968770205974579 
v -2.1777310371398926 1.1599767208099365 -0.2972188889980316 
v -2.1777310371398926 1.1599767208099365 -0.1975606381893158 
v -2.1777310371398926 1.1599767208099365 -0.09790250658988953 
v -2.1777310371398926 1.059732437133789 -0.1975606381893158 
v -2.1777310371398926 0.9599278569221497 -0.09790250658988953 
v -2.1777310371398926 1.059732437133789 -0.2972188889980316 
v -2.1777310371398926 1.059732437133789 -0.3968770205974579 
v -1.9776332378387451 0.5598300099372864 0.10307493805885315 
v -1.9776332378387451 0.5598300099372864 -0.09790250658988953 
v -1.9776332378387451 0.6596346497535706 0.10307493805885315 
v -1.9776332378387451 0.759878933429718 0.0034166898112744093 
v -1.9776332378387451 0.6596346497535706 0.20273306965827942 
v -1.9776332378387451 0.8596835732460022 0.20273306965827942 
v -1.9776332378387451 0.9599278569221497 0.20273306965827942 
v -1.9776332378387451 0.9599278569221497 0.0034166898112744093 
v -2.1777310371398926 0.5598300099372864 0.8023433089256287 
v -1.9776332378387451 0.5598300099372864 0.8023433089256287 
v -2.1777310371398926 0.8596835732460022 0.8023433089256287 
v -1.9776332378387451 0.8596835732460022 0.8023433089256287 
v -2.1777310371398926 1.1599767208099365 -0.7971708178520203 
v -1.9776332378387451 1.1599767208099365 -0.7971708178520203 
v -2.1777310371398926 1.1599767208099365 -0.8968290686607361 
v -1.9776332378387451 1.1599767208099365 -0.8968290686607361 
v -2.1777310371398926 1.2597813606262207 -0.09790250658988953 
v -1.9776332378387451 1.2597813606262207 -0.09790250658988953 
v -2.1777310371398926 1.2597813606262207 -0.7971708178520203 
v -1.9776332378387451 1.2597813606262207 -0.7971708178520203 
v -2.1777310371398926 0.9599278569221497 0.7026850581169128 
v -1.9776332378387451 0.9599278569221497 0.7026850581169128 
v -2.1777310371398926 0.9599278569221497 0.6030269265174866 
v -1.9776332378387451 0.9599278569221497 0.6030269265174866 
v -2.1777310371398926 0.8596835732460022 0.7026850581169128 
v -1.9776332378387451 0.8596835732460022 0.7026850581169128 
v -2.1777310371398926 0.9599278569221497 0.7026850581169128 
v -1.9776332378387451 0.9599278569221497 0.7026850581169128 
v -2.1777310371398926 0.9599278569221497 0.4020494520664215 
v -2.1777310371398926 0.9599278569221497 0.30239132046699524 
v -1.9776332378387451 0.9599278569221497 0.4020494520664215 
v -1.9776332378387451 0.9599278569221497 0.30239132046699524 
v -2.1777310371398926 0.9599278569221497 0.6030269265174866 
v -1.9776332378387451 0.9599278569221497 0.6030269265174866 
v -2.1777310371398926 1.059732437133789 0.6030269265174866 
v -1.9776332378387451 1.059732437133789 0.6030269265174866 
v -2.1777310371398926 1.1599767208099365 0.5033686757087708 
v -1.9776332378387451 1.1599767208099365 0.5033686757087708 
v -2.1777310371398926 1.1599767208099365 0.30239132046699524 
v -1.9776332378387451 1.1599767208099365 0.30239132046699524 
v -2.1777310371398926 0.8596835732460022 0.8023433089256287 
v -1.9776332378387451 0.8596835732460022 0.8023433089256287 
v -2.1777310371398926 0.8596835732460022 0.7026850581169128 
v -1.9776332378387451 0.8596835732460022 0.7026850581169128 
v -2.1777310371398926 0.5598300099372864 0.10307493805885315 
v -2.1777310371398926 0.5598300099372864 -0.09790250658988953 
v -1.9776332378387451 0.5598300099372864 0.10307493805885315 
v -1.9776332378387451 0.5598300099372864 -0.09790250658988953 
v -1.9776332378387451 1.2597813606262207 0.6030269265174866 
v -2.1777310371398926 1.2597813606262207 0.6030269265174866 
v -1.9776332378387451 1.1599767208099365 0.6030269265174866 
v -2.1777310371398926 1.1599767208099365 0.6030269265174866 
v -1.9776332378387451 1.1599767208099365 -0.8968290686607361 
v -1.9776332378387451 1.059732437133789 -0.8968290686607361 
v -2.1777310371398926 1.1599767208099365 -0.8968290686607361 
v -2.1777310371398926 1.059732437133789 -0.8968290686607361 
v -1.9776332378387451 1.2597813606262207 -0.7971708178520203 
v -1.9776332378387451 1.1599767208099365 -0.7971708178520203 
v -2.1777310371398926 1.2597813606262207 -0.7971708178520203 
v -2.1777310371398926 1.1599767208099365 -0.7971708178520203 
v -2.1777310371398926 0.9599278569221497 -0.7971708178520203 
v -2.1777310371398926 1.059732437133789 -0.7971708178520203 
v -1.9776332378387451 0.9599278569221497 -0.7971708178520203 
v -1.9776332378387451 1.059732437133789 -0.7971708178520203 
v -1.8777797222137451 1.1599767208099365 -0.09790250658988953 
v -1.8777797222137451 0.9599278569221497 -0.09790250658988953 
v -1.9776332378387451 1.1599767208099365 -0.09790250658988953 
v -1.9776332378387451 0.9599278569221497 -0.09790250658988953 
v -1.9776332378387451 0.759878933429718 -0.09790250658988953 
v -1.9776332378387451 0.5598300099372864 -0.09790250658988953 
v -2.1777310371398926 0.759878933429718 -0.09790250658988953 
v -2.1777310371398926 0.5598300099372864 -0.09790250658988953 
v -2.277780055999756 0.9599278569221497 -0.09790250658988953 
v -2.277780055999756 1.1599767208099365 -0.09790250658988953 
v -2.1777310371398926 0.9599278569221497 -0.09790250658988953 
v -2.1777310371398926 1.1599767208099365 -0.09790250658988953 
v -2.1777310371398926 1.2597813606262207 0.6030269265174866 
v -1.9776332378387451 1.2597813606262207 0.6030269265174866 
v -2.1777310371398926 1.2597813606262207 0.5033686757087708 
v -1.9776332378387451 1.2597813606262207 0.5033686757087708 
v -2.1777310371398926 1.059732437133789 0.6030269265174866 
v -1.9776332378387451 1.059732437133789 0.6030269265174866 
v -2.1777310371398926 1.059732437133789 0.5033686757087708 
v -1.9776332378387451 1.059732437133789 0.5033686757087708 
v -1.8777797222137451 1.1599767208099365 -0.09790250658988953 
v -1.9776332378387451 1.1599767208099365 -0.09790250658988953 
v -1.8777797222137451 1.1599767208099365 0.30239132046699524 
v -1.9776332378387451 1.1599767208099365 0.30239132046699524 
v -2.1777310371398926 1.1599767208099365 0.5033686757087708 
v -2.1777310371398926 1.2597813606262207 0.5033686757087708 
v -1.9776332378387451 1.1599767208099365 0.5033686757087708 
v -1.9776332378387451 1.2597813606262207 0.5033686757087708 
v -2.1777310371398926 1.1599767208099365 0.30239132046699524 
v -2.277780055999756 1.1599767208099365 0.30239132046699524 
v -2.1777310371398926 0.9599278569221497 0.30239132046699524 
v -2.277780055999756 0.9599278569221497 0.30239132046699524 
v -2.1777310371398926 0.5598300099372864 0.10307493805885315 
v -1.9776332378387451 0.5598300099372864 0.10307493805885315 
v -2.1777310371398926 0.6596346497535706 0.10307493805885315 
v -1.9776332378387451 0.6596346497535706 0.10307493805885315 
v -2.1777310371398926 0.6596346497535706 0.20273306965827942 
v -1.9776332378387451 0.6596346497535706 0.20273306965827942 
v -2.1777310371398926 0.8596835732460022 0.20273306965827942 
v -1.9776332378387451 0.8596835732460022 0.20273306965827942 
v -2.1777310371398926 1.2597813606262207 0.30239132046699524 
v -1.9776332378387451 1.2597813606262207 0.30239132046699524 
v -2.1777310371398926 1.2597813606262207 -0.09790250658988953 
v -1.9776332378387451 1.2597813606262207 -0.09790250658988953 
v -2.1777310371398926 1.1599767208099365 0.30239132046699524 
v -2.1777310371398926 0.9599278569221497 0.30239132046699524 
v -2.1777310371398926 1.1599767208099365 0.5033686757087708 
v -2.1777310371398926 1.059732437133789 0.5033686757087708 
v -2.1777310371398926 1.059732437133789 0.6030269265174866 
v -2.1777310371398926 0.9599278569221497 0.4020494520664215 
v -2.1777310371398926 0.9599278569221497 0.5033686757087708 
v -1.9776332378387451 1.2597813606262207 0.30239132046699524 
v -2.1777310371398926 1.2597813606262207 0.30239132046699524 
v -1.9776332378387451 1.1599767208099365 0.30239132046699524 
v -1.8777797222137451 1.1599767208099365 0.30239132046699524 
v -1.8777797222137451 0.9599278569221497 0.30239132046699524 
v -1.9776332378387451 0.9599278569221497 0.30239132046699524 
v -2.1777310371398926 0.5598300099372864 0.6030269265174866 
v -2.1777310371398926 0.759878933429718 0.6030269265174866 
v -1.9776332378387451 0.5598300099372864 0.6030269265174866 
v -1.9776332378387451 0.759878933429718 0.6030269265174866 
v -1.9776332378387451 1.2597813606262207 -0.7971708178520203 
v -1.9776332378387451 1.2597813606262207 -0.09790250658988953 
v -1.9776332378387451 1.1599767208099365 -0.7971708178520203 
v -1.9776332378387451 1.1599767208099365 -0.6975125670433044 
v -1.9776332378387451 1.059732437133789 -0.7971708178520203 
v -1.9776332378387451 1.059732437133789 -0.6975125670433044 
v -1.9776332378387451 0.9599278569221497 -0.7971708178520203 
v -1.9776332378387451 1.059732437133789 -0.5978543162345886 
v -1.9776332378387451 1.059732437133789 -0.4965352714061737 
v -1.9776332378387451 1.1599767208099365 -0.4965352714061737 
v -1.9776332378387451 1.1599767208099365 -0.5978543162345886 
v -1.9776332378387451 1.1599767208099365 -0.3968770205974579 
v -1.9776332378387451 1.1599767208099365 -0.2972188889980316 
v -1.9776332378387451 1.059732437133789 -0.3968770205974579 
v -1.9776332378387451 1.059732437133789 -0.2972188889980316 
v -1.9776332378387451 1.059732437133789 -0.1975606381893158 
v -1.9776332378387451 0.9599278569221497 -0.09790250658988953 
v -1.9776332378387451 1.1599767208099365 -0.09790250658988953 
v -1.9776332378387451 1.1599767208099365 -0.1975606381893158 
v -2.1777310371398926 1.059732437133789 -0.1975606381893158 
v -2.1777310371398926 1.1599767208099365 -0.1975606381893158 
v -2.1777310371398926 1.059732437133789 -0.2972188889980316 
v -2.1777310371398926 1.1599767208099365 -0.2972188889980316 
v -1.9776332378387451 1.059732437133789 -0.7971708178520203 
v -1.9776332378387451 1.059732437133789 -0.8968290686607361 
v -1.9776332378387451 1.1599767208099365 -0.7971708178520203 
v -1.9776332378387451 1.1599767208099365 -0.8968290686607361 
v -1.9776332378387451 0.8596835732460022 0.30239132046699524 
v -2.1777310371398926 0.8596835732460022 0.30239132046699524 
v -1.9776332378387451 0.8596835732460022 0.4020494520664215 
v -2.1777310371398926 0.8596835732460022 0.4020494520664215 
v -1.9776332378387451 1.1599767208099365 -0.2972188889980316 
v -1.9776332378387451 1.1599767208099365 -0.1975606381893158 
v -1.9776332378387451 1.059732437133789 -0.2972188889980316 
v -1.9776332378387451 1.059732437133789 -0.1975606381893158 
v -1.9776332378387451 1.1599767208099365 0.5033686757087708 
v -1.9776332378387451 1.1599767208099365 0.6030269265174866 
v -2.1777310371398926 1.1599767208099365 0.5033686757087708 
v -2.1777310371398926 1.1599767208099365 0.6030269265174866 
v -1.9776332378387451 1.059732437133789 -0.8968290686607361 
v -1.9776332378387451 1.059732437133789 -0.7971708178520203 
v -2.1777310371398926 1.059732437133789 -0.8968290686607361 
v -2.1777310371398926 1.059732437133789 -0.7971708178520203 
v -2.1777310371398926 0.8596835732460022 0.30239132046699524 
v -2.1777310371398926 0.759878933429718 0.30239132046699524 
v -2.1777310371398926 0.8596835732460022 0.4020494520664215 
v -2.1777310371398926 0.8596835732460022 0.5033686757087708 
v -2.1777310371398926 1.1599767208099365 -0.09790250658988953 
v -2.277780055999756 1.1599767208099365 -0.09790250658988953 
v -2.1777310371398926 1.1599767208099365 0.30239132046699524 
v -2.277780055999756 1.1599767208099365 0.30239132046699524 
v -1.9776332378387451 0.8596835732460022 0.20273306965827942 
v -1.9776332378387451 0.8596835732460022 0.30239132046699524 
v -2.1777310371398926 0.8596835732460022 0.20273306965827942 
v -2.1777310371398926 0.8596835732460022 0.30239132046699524 
v -1.9776332378387451 0.759878933429718 0.5033686757087708 
v -1.9776332378387451 0.759878933429718 0.6030269265174866 
v -2.1777310371398926 0.759878933429718 0.5033686757087708 
v -2.1777310371398926 0.759878933429718 0.6030269265174866 
v -1.9776332378387451 0.9599278569221497 0.6030269265174866 
v -1.9776332378387451 0.9599278569221497 0.5033686757087708 
v -1.9776332378387451 1.059732437133789 0.6030269265174866 
v -1.9776332378387451 0.9599278569221497 0.4020494520664215 
v -1.9776332378387451 0.9599278569221497 0.30239132046699524 
v -1.9776332378387451 1.059732437133789 0.5033686757087708 
v -1.9776332378387451 1.1599767208099365 0.5033686757087708 
v -1.9776332378387451 0.9599278569221497 0.20273306965827942 
v -1.9776332378387451 0.8596835732460022 0.20273306965827942 
v -1.9776332378387451 0.8596835732460022 0.30239132046699524 
v -2.1777310371398926 0.9599278569221497 0.4020494520664215 
v -2.1777310371398926 0.8596835732460022 0.4020494520664215 
v -2.1777310371398926 0.9599278569221497 0.5033686757087708 
v -2.1777310371398926 0.8596835732460022 0.5033686757087708 
v -2.1777310371398926 0.759878933429718 0.0034166898112744093 
v -2.1777310371398926 0.9599278569221497 0.0034166898112744093 
v -1.9776332378387451 0.759878933429718 0.0034166898112744093 
v -1.9776332378387451 0.9599278569221497 0.0034166898112744093 
v -1.9776332378387451 1.1599767208099365 -0.6975125670433044 
v -1.9776332378387451 1.1599767208099365 -0.5978543162345886 
v -1.9776332378387451 1.059732437133789 -0.6975125670433044 
v -1.9776332378387451 1.059732437133789 -0.5978543162345886 
v -1.9776332378387451 0.9599278569221497 0.5033686757087708 
v -1.9776332378387451 0.9599278569221497 0.6030269265174866 
v -1.9776332378387451 0.8596835732460022 0.5033686757087708 
v -1.9776332378387451 0.9599278569221497 0.7026850581169128 
v -1.9776332378387451 0.8596835732460022 0.7026850581169128 
v -1.9776332378387451 0.759878933429718 0.5033686757087708 
v -1.9776332378387451 0.8596835732460022 0.8023433089256287 
v -1.9776332378387451 0.759878933429718 0.6030269265174866 
v -1.9776332378387451 0.5598300099372864 0.8023433089256287 
v -1.9776332378387451 0.5598300099372864 0.6030269265174866 
v -1.9776332378387451 1.1599767208099365 0.6030269265174866 
v -1.9776332378387451 1.2597813606262207 0.6030269265174866 
v -1.9776332378387451 1.2597813606262207 0.5033686757087708 
v -1.9776332378387451 1.1599767208099365 -0.4965352714061737 
v -1.9776332378387451 1.1599767208099365 -0.3968770205974579 
v -1.9776332378387451 1.059732437133789 -0.4965352714061737 
v -1.9776332378387451 1.059732437133789 -0.3968770205974579 
v -1.9776332378387451 1.1599767208099365 0.30239132046699524 
v -1.9776332378387451 1.1599767208099365 -0.09790250658988953 
v -1.9776332378387451 1.2597813606262207 0.30239132046699524 
v -1.9776332378387451 1.2597813606262207 -0.09790250658988953 
v -2.1777310371398926 1.2597813606262207 -0.09790250658988953 
v -2.1777310371398926 1.1599767208099365 -0.09790250658988953 
v -2.1777310371398926 1.2597813606262207 0.30239132046699524 
v -2.1777310371398926 1.1599767208099365 0.30239132046699524 
v -2.1777310371398926 0.759878933429718 -0.09790250658988953 
v -2.1777310371398926 0.5598300099372864 -0.09790250658988953 
v -2.1777310371398926 0.759878933429718 0.0034166898112744093 
v -2.1777310371398926 0.6596346497535706 0.10307493805885315 
v -2.1777310371398926 0.6596346497535706 0.20273306965827942 
v -2.1777310371398926 0.8596835732460022 0.20273306965827942 
v -2.1777310371398926 0.9599278569221497 0.20273306965827942 
v -2.1777310371398926 0.9599278569221497 0.0034166898112744093 
v -2.1777310371398926 1.1599767208099365 0.6030269265174866 
v -2.1777310371398926 1.2597813606262207 0.6030269265174866 
v -2.1777310371398926 1.2597813606262207 0.5033686757087708 
v -2.1777310371398926 1.1599767208099365 -0.6975125670433044 
v -2.1777310371398926 1.059732437133789 -0.6975125670433044 
v -2.1777310371398926 1.1599767208099365 -0.5978543162345886 
v -2.1777310371398926 1.059732437133789 -0.5978543162345886 
v -1.9776332378387451 0.759878933429718 0.30239132046699524 
v -1.9776332378387451 0.759878933429718 0.5033686757087708 
v -2.1777310371398926 0.759878933429718 0.30239132046699524 
v -2.1777310371398926 0.759878933429718 0.5033686757087708 
v -1.9776332378387451 0.6596346497535706 0.10307493805885315 
v -1.9776332378387451 0.6596346497535706 0.20273306965827942 
v -2.1777310371398926 0.6596346497535706 0.10307493805885315 
v -2.1777310371398926 0.6596346497535706 0.20273306965827942 
v -1.8777797222137451 0.9599278569221497 0.30239132046699524 
v -1.8777797222137451 0.9599278569221497 -0.09790250658988953 
v -1.8777797222137451 1.1599767208099365 0.30239132046699524 
v -1.8777797222137451 1.1599767208099365 -0.09790250658988953 
v -1.9776332378387451 0.8596835732460022 0.5033686757087708 
v -1.9776332378387451 0.8596835732460022 0.4020494520664215 
v -1.9776332378387451 0.9599278569221497 0.5033686757087708 
v -1.9776332378387451 0.9599278569221497 0.4020494520664215 
v -1.9776332378387451 0.9599278569221497 0.4020494520664215 
v -1.9776332378387451 0.8596835732460022 0.4020494520664215 
v -2.1777310371398926 0.9599278569221497 0.4020494520664215 
v -2.1777310371398926 0.8596835732460022 0.4020494520664215 
v -2.1777310371398926 1.059732437133789 -0.7971708178520203 
v -2.1777310371398926 1.1599767208099365 -0.7971708178520203 
v -2.1777310371398926 1.059732437133789 -0.8968290686607361 
v -2.1777310371398926 1.1599767208099365 -0.8968290686607361 
v -1.9776332378387451 0.8596835732460022 0.30239132046699524 
v -1.9776332378387451 0.759878933429718 0.30239132046699524 
v -2.1777310371398926 0.8596835732460022 0.30239132046699524 
v -2.1777310371398926 0.759878933429718 0.30239132046699524 
v -1.9776332378387451 1.1599767208099365 0.5033686757087708 
v -2.1777310371398926 1.1599767208099365 0.5033686757087708 
v -1.9776332378387451 1.059732437133789 0.5033686757087708 
v -2.1777310371398926 1.059732437133789 0.5033686757087708 
v -1.9776332378387451 0.759878933429718 -0.09790250658988953 
v -2.1777310371398926 0.759878933429718 -0.09790250658988953 
v -1.9776332378387451 0.759878933429718 0.0034166898112744093 
v -2.1777310371398926 0.759878933429718 0.0034166898112744093 
v -2.1777310371398926 0.5598300099372864 0.8023433089256287 
v -2.1777310371398926 0.5598300099372864 0.6030269265174866 
v -1.9776332378387451 0.5598300099372864 0.8023433089256287 
v -1.9776332378387451 0.5598300099372864 0.6030269265174866 
v -2.1777310371398926 0.9599278569221497 0.30239132046699524 
v -2.277780055999756 0.9599278569221497 0.30239132046699524 
v -2.1777310371398926 0.9599278569221497 0.20273306965827942 
v -2.1777310371398926 0.9599278569221497 0.0034166898112744093 
v -2.277780055999756 0.9599278569221497 -0.09790250658988953 
v -1.9776332378387451 0.9599278569221497 0.0034166898112744093 
v -2.1777310371398926 0.9599278569221497 -0.09790250658988953 
v -1.9776332378387451 0.9599278569221497 -0.09790250658988953 
v -1.8777797222137451 0.9599278569221497 0.30239132046699524 
v -1.8777797222137451 0.9599278569221497 -0.09790250658988953 
v -1.9776332378387451 0.9599278569221497 0.20273306965827942 
v -1.9776332378387451 0.9599278569221497 0.30239132046699524 
v -1.9776332378387451 0.9599278569221497 0.30239132046699524 
v -2.1777310371398926 0.9599278569221497 0.30239132046699524 
v -1.9776332378387451 0.8596835732460022 0.30239132046699524 
v -2.1777310371398926 0.8596835732460022 0.30239132046699524 
v -2.1777310371398926 1.1599767208099365 -0.4965352714061737 
v -2.1777310371398926 1.059732437133789 -0.4965352714061737 
v -2.1777310371398926 1.1599767208099365 -0.3968770205974579 
v -2.1777310371398926 1.059732437133789 -0.3968770205974579 
v -2.1777310371398926 0.9599278569221497 0.20273306965827942 
v -2.1777310371398926 0.8596835732460022 0.20273306965827942 
v -1.9776332378387451 0.9599278569221497 -0.7971708178520203 
v -1.9776332378387451 0.9599278569221497 -0.09790250658988953 
v -2.1777310371398926 0.9599278569221497 -0.7971708178520203 
v -2.1777310371398926 0.9599278569221497 -0.09790250658988953 
v -1.9776332378387451 0.759878933429718 0.5033686757087708 
v -1.9776332378387451 0.759878933429718 0.30239132046699524 
v -1.9776332378387451 0.8596835732460022 0.5033686757087708 
v -1.9776332378387451 0.8596835732460022 0.4020494520664215 
v -2.1777310371398926 0.5598300099372864 0.10307493805885315 
v -2.1777310371398926 0.759878933429718 0.5033686757087708 
v -2.1777310371398926 0.9599278569221497 0.5033686757087708 
v -2.1777310371398926 0.9599278569221497 0.6030269265174866 
v -1.9776332378387451 0.759878933429718 -0.09790250658988953 
v -1.9776332378387451 1.1599767208099365 0.30239132046699524 
vn -0.999997615814209 -2.0682260971124217e-13 0.002184694167226553 
vn -0.999997615814209 -2.0682260971124217e-13 0.002184694167226553 
vn -0.999997615814209 -2.0682260971124217e-13 0.002184694167226553 
vn -0.999997615814209 -2.0682260971124217e-13 0.002184694167226553 
vn -0.999997615814209 -2.0682260971124217e-13 0.002184694167226553 
vn -0.999997615814209 -2.0682260971124217e-13 0.002184694167226553 
vn -0.999997615814209 -2.0682260971124217e-13 0.002184694167226553 
vn -0.999997615814209 -2.0682260971124217e-13 0.002184694167226553 
vn -0.999997615814209 -2.0682260971124217e-13 0.002184694167226553 
vn -0.999997615814209 -2.0682260971124217e-13 0.002184694167226553 
vn -0.999997615814209 -2.0682260971124217e-13 0.002184694167226553 
vn -0.999997615814209 -2.0682260971124217e-13 0.002184694167226553 
vn -0.999997615814209 -2.0682260971124217e-13 0.002184694167226553 
vn -0.999997615814209 -2.0682260971124217e-13 0.002184694167226553 
vn -0.999997615814209 -2.0682260971124217e-13 0.002184694167226553 
vn -0.999997615814209 -2.0682260971124217e-13 0.002184694167226553 
vn -0.999997615814209 -2.0682260971124217e-13 0.002184694167226553 
vn -0.999997615814209 -2.0682260971124217e-13 0.002184694167226553 
vn -0.999997615814209 -2.0682260971124217e-13 0.002184694167226553 
vn -0.999997615814209 -2.0682260971124217e-13 0.002184694167226553 
vn -0.999997615814209 -2.0682260971124217e-13 0.002184694167226553 
vn -0.999997615814209 -2.0682260971124217e-13 0.002184694167226553 
vn -0.999997615814209 -2.0682260971124217e-13 0.002184694167226553 
vn -0.999997615814209 -2.0682260971124217e-13 0.002184694167226553 
vn -0.999997615814209 -2.0682260971124217e-13 0.002184694167226553 
vn -0.999997615814209 -2.0682260971124217e-13 0.002184694167226553 
vn -0.999997615814209 -2.0682260971124217e-13 0.002184694167226553 
vn -0.999997615814209 -2.0682260971124217e-13 0.002184694167226553 
vn -0.999997615814209 -2.0682260971124217e-13 0.002184694167226553 
vn -0.999997615814209 -2.0682260971124217e-13 0.002184694167226553 
vn -0.999997615814209 -2.0682260971124217e-13 0.002184694167226553 
vn -0.999997615814209 -2.0682260971124217e-13 0.002184694167226553 
vn 0.999997615814209 0 0.002184694167226553 
vn 0.999997615814209 0 0.002184694167226553 
vn 0.999997615814209 0 0.002184694167226553 
vn 0.999997615814209 0 0.002184694167226553 
vn 0.999997615814209 0 0.002184694167226553 
vn 0.999997615814209 0 0.002184694167226553 
vn 0.999997615814209 0 0.002184694167226553 
vn 0.999997615814209 0 0.002184694167226553 
vn 0 0 1 
vn 0 0 1 
vn 0 0 1 
vn 0 0 1 
vn -1.0341130485562108e-13 0.999997615814209 0.002184694167226553 
vn -1.0341130485562108e-13 0.999997615814209 0.002184694167226553 
vn -1.0341130485562108e-13 0.999997615814209 0.002184694167226553 
vn -1.0341130485562108e-13 0.999997615814209 0.002184694167226553 
vn -1.0341130485562108e-13 0.999997615814209 0.002184694167226553 
vn -1.0341130485562108e-13 0.999997615814209 0.002184694167226553 
vn -1.0341130485562108e-13 0.999997615814209 0.002184694167226553 
vn -1.0341130485562108e-13 0.999997615814209 0.002184694167226553 
vn -1.0341130485562108e-13 0.999997615814209 0.002184694167226553 
vn -1.0341130485562108e-13 0.999997615814209 0.002184694167226553 
vn -1.0341130485562108e-13 0.999997615814209 0.002184694167226553 
vn -1.0341130485562108e-13 0.999997615814209 0.002184694167226553 
vn 0 0 1 
vn 0 0 1 
vn 0 0 1 
vn 0 0 1 
vn 3.097898456858039e-13 -0.999997615814209 0.002184694167226553 
vn 3.097898456858039e-13 -0.999997615814209 0.002184694167226553 
vn 3.097898456858039e-13 -0.999997615814209 0.002184694167226553 
vn 3.097898456858039e-13 -0.999997615814209 0.002184694167226553 
vn 0 0 1 
vn 0 0 1 
vn 0 0 1 
vn 0 0 1 
vn -1.0341130485562108e-13 0.999997615814209 0.002184694167226553 
vn -1.0341130485562108e-13 0.999997615814209 0.002184694167226553 
vn -1.0341130485562108e-13 0.999997615814209 0.002184694167226553 
vn -1.0341130485562108e-13 0.999997615814209 0.002184694167226553 
vn -1.0341130485562108e-13 0.999997615814209 0.002184694167226553 
vn -1.0341130485562108e-13 0.999997615814209 0.002184694167226553 
vn -1.0341130485562108e-13 0.999997615814209 0.002184694167226553 
vn -1.0341130485562108e-13 0.999997615814209 0.002184694167226553 
vn 3.097898456858039e-13 -0.999997615814209 0.002184694167226553 
vn 3.097898456858039e-13 -0.999997615814209 0.002184694167226553 
vn 3.097898456858039e-13 -0.999997615814209 0.002184694167226553 
vn 3.097898456858039e-13 -0.999997615814209 0.002184694167226553 
vn 0 0 1 
vn 0 0 1 
vn 0 0 1 
vn 0 0 1 
vn -2.0682311115474694e-13 0 -1 
vn -2.0682311115474694e-13 0 -1 
vn -2.0682311115474694e-13 0 -1 
vn -2.0682311115474694e-13 0 -1 
vn -2.0682311115474694e-13 0 -1 
vn -2.0682311115474694e-13 0 -1 
vn -2.0682311115474694e-13 0 -1 
vn -2.0682311115474694e-13 0 -1 
vn -2.0682311115474694e-13 0 -1 
vn -2.0682311115474694e-13 0 -1 
vn -2.0682311115474694e-13 0 -1 
vn -2.0682311115474694e-13 0 -1 
vn -2.0682311115474694e-13 0 -1 
vn -2.0682311115474694e-13 0 -1 
vn -2.0682311115474694e-13 0 -1 
vn -2.0682311115474694e-13 0 -1 
vn -2.0682311115474694e-13 0 -1 
vn -2.0682311115474694e-13 0 -1 
vn -2.0682311115474694e-13 0 -1 
vn -2.0682311115474694e-13 0 -1 
vn -2.0682311115474694e-13 0 -1 
vn -2.0682311115474694e-13 0 -1 
vn -2.0682311115474694e-13 0 -1 
vn -2.0682311115474694e-13 0 -1 
vn -1.0341130485562108e-13 0.999997615814209 0.002184694167226553 
vn -1.0341130485562108e-13 0.999997615814209 0.002184694167226553 
vn -1.0341130485562108e-13 0.999997615814209 0.002184694167226553 
vn -1.0341130485562108e-13 0.999997615814209 0.002184694167226553 
vn -1.0341130485562108e-13 0.999997615814209 0.002184694167226553 
vn -1.0341130485562108e-13 0.999997615814209 0.002184694167226553 
vn -1.0341130485562108e-13 0.999997615814209 0.002184694167226553 
vn -1.0341130485562108e-13 0.999997615814209 0.002184694167226553 
vn -1.0341130485562108e-13 0.999997615814209 0.002184694167226553 
vn -1.0341130485562108e-13 0.999997615814209 0.002184694167226553 
vn -1.0341130485562108e-13 0.999997615814209 0.002184694167226553 
vn -1.0341130485562108e-13 0.999997615814209 0.002184694167226553 
vn -2.0682311115474694e-13 0 -1 
vn -2.0682311115474694e-13 0 -1 
vn -2.0682311115474694e-13 0 -1 
vn -2.0682311115474694e-13 0 -1 
vn 0 0 1 
vn 0 0 1 
vn 0 0 1 
vn 0 0 1 
vn 0 0 1 
vn 0 0 1 
vn 0 0 1 
vn 0 0 1 
vn 0 0 1 
vn 0 0 1 
vn 0 0 1 
vn 0 0 1 
vn -1.0341130485562108e-13 0.999997615814209 0.002184694167226553 
vn -1.0341130485562108e-13 0.999997615814209 0.002184694167226553 
vn -1.0341130485562108e-13 0.999997615814209 0.002184694167226553 
vn -1.0341130485562108e-13 0.999997615814209 0.002184694167226553 
vn -0.999997615814209 -2.0682260971124217e-13 0.002184694167226553 
vn -0.999997615814209 -2.0682260971124217e-13 0.002184694167226553 
vn -0.999997615814209 -2.0682260971124217e-13 0.002184694167226553 
vn -0.999997615814209 -2.0682260971124217e-13 0.002184694167226553 
vn -0.999997615814209 -2.0682260971124217e-13 0.002184694167226553 
vn -0.999997615814209 -2.0682260971124217e-13 0.002184694167226553 
vn -0.999997615814209 -2.0682260971124217e-13 0.002184694167226553 
vn 0 0 1 
vn 0 0 1 
vn 0 0 1 
vn 0 0 1 
vn 0 0 1 
vn 0 0 1 
vn -2.0682311115474694e-13 0 -1 
vn -2.0682311115474694e-13 0 -1 
vn -2.0682311115474694e-13 0 -1 
vn -2.0682311115474694e-13 0 -1 
vn 0.999997615814209 0 0.002184694167226553 
vn 0.999997615814209 0 0.002184694167226553 
vn 0.999997615814209 0 0.002184694167226553 
vn 0.999997615814209 0 0.002184694167226553 
vn 0.999997615814209 0 0.002184694167226553 
vn 0.999997615814209 0 0.002184694167226553 
vn 0.999997615814209 0 0.002184694167226553 
vn 0.999997615814209 0 0.002184694167226553 
vn 0.999997615814209 0 0.002184694167226553 
vn 0.999997615814209 0 0.002184694167226553 
vn 0.999997615814209 0 0.002184694167226553 
vn 0.999997615814209 0 0.002184694167226553 
vn 0.999997615814209 0 0.002184694167226553 
vn 0.999997615814209 0 0.002184694167226553 
vn 0.999997615814209 0 0.002184694167226553 
vn 0.999997615814209 0 0.002184694167226553 
vn 0.999997615814209 0 0.002184694167226553 
vn 0.999997615814209 0 0.002184694167226553 
vn 0.999997615814209 0 0.002184694167226553 
vn -0.999997615814209 -2.0682260971124217e-13 0.002184694167226553 
vn -0.999997615814209 -2.0682260971124217e-13 0.002184694167226553 
vn -0.999997615814209 -2.0682260971124217e-13 0.002184694167226553 
vn -0.999997615814209 -2.0682260971124217e-13 0.002184694167226553 
vn 0.999997615814209 0 0.002184694167226553 
vn 0.999997615814209 0 0.002184694167226553 
vn 0.999997615814209 0 0.002184694167226553 
vn 0.999997615814209 0 0.002184694167226553 
vn -1.0341130485562108e-13 0.999997615814209 0.002184694167226553 
vn -1.0341130485562108e-13 0.999997615814209 0.002184694167226553 
vn -1.0341130485562108e-13 0.999997615814209 0.002184694167226553 
vn -1.0341130485562108e-13 0.999997615814209 0.002184694167226553 
vn 0.999997615814209 0 0.002184694167226553 
vn 0.999997615814209 0 0.002184694167226553 
vn 0.999997615814209 0 0.002184694167226553 
vn 0.999997615814209 0 0.002184694167226553 
vn 3.097898456858039e-13 -0.999997615814209 0.002184694167226553 
vn 3.097898456858039e-13 -0.999997615814209 0.002184694167226553 
vn 3.097898456858039e-13 -0.999997615814209 0.002184694167226553 
vn 3.097898456858039e-13 -0.999997615814209 0.002184694167226553 
vn 3.097898456858039e-13 -0.999997615814209 0.002184694167226553 
vn 3.097898456858039e-13 -0.999997615814209 0.002184694167226553 
vn 3.097898456858039e-13 -0.999997615814209 0.002184694167226553 
vn 3.097898456858039e-13 -0.999997615814209 0.002184694167226553 
vn -0.999997615814209 -2.0682260971124217e-13 0.002184694167226553 
vn -0.999997615814209 -2.0682260971124217e-13 0.002184694167226553 
vn -0.999997615814209 -2.0682260971124217e-13 0.002184694167226553 
vn -0.999997615814209 -2.0682260971124217e-13 0.002184694167226553 
vn -1.0341130485562108e-13 0.999997615814209 0.002184694167226553 
vn -1.0341130485562108e-13 0.999997615814209 0.002184694167226553 
vn -1.0341130485562108e-13 0.999997615814209 0.002184694167226553 
vn -1.0341130485562108e-13 0.999997615814209 0.002184694167226553 
vn 3.097898456858039e-13 -0.999997615814209 0.002184694167226553 
vn 3.097898456858039e-13 -0.999997615814209 0.002184694167226553 
vn 3.097898456858039e-13 -0.999997615814209 0.002184694167226553 
vn 3.097898456858039e-13 -0.999997615814209 0.002184694167226553 
vn 3.097898456858039e-13 -0.999997615814209 0.002184694167226553 
vn 3.097898456858039e-13 -0.999997615814209 0.002184694167226553 
vn 3.097898456858039e-13 -0.999997615814209 0.002184694167226553 
vn 3.097898456858039e-13 -0.999997615814209 0.002184694167226553 
vn 0.999997615814209 0 0.002184694167226553 
vn 0.999997615814209 0 0.002184694167226553 
vn 0.999997615814209 0 0.002184694167226553 
vn 0.999997615814209 0 0.002184694167226553 
vn 0.999997615814209 0 0.002184694167226553 
vn 0.999997615814209 0 0.002184694167226553 
vn 0.999997615814209 0 0.002184694167226553 
vn 0.999997615814209 0 0.002184694167226553 
vn 0.999997615814209 0 0.002184694167226553 
vn 0.999997615814209 0 0.002184694167226553 
vn -0.999997615814209 -2.0682260971124217e-13 0.002184694167226553 
vn -0.999997615814209 -2.0682260971124217e-13 0.002184694167226553 
vn -0.999997615814209 -2.0682260971124217e-13 0.002184694167226553 
vn -0.999997615814209 -2.0682260971124217e-13 0.002184694167226553 
vn -2.0682311115474694e-13 0 -1 
vn -2.0682311115474694e-13 0 -1 
vn -2.0682311115474694e-13 0 -1 
vn -2.0682311115474694e-13 0 -1 
vn 0.999997615814209 0 0.002184694167226553 
vn 0.999997615814209 0 0.002184694167226553 
vn 0.999997615814209 0 0.002184694167226553 
vn 0.999997615814209 0 0.002184694167226553 
vn 0.999997615814209 0 0.002184694167226553 
vn 0.999997615814209 0 0.002184694167226553 
vn 0.999997615814209 0 0.002184694167226553 
vn 0.999997615814209 0 0.002184694167226553 
vn 0.999997615814209 0 0.002184694167226553 
vn 0.999997615814209 0 0.002184694167226553 
vn 0.999997615814209 0 0.002184694167226553 
vn 0.999997615814209 0 0.002184694167226553 
vn 0.999997615814209 0 0.002184694167226553 
vn 0.999997615814209 0 0.002184694167226553 
vn 0.999997615814209 0 0.002184694167226553 
vn 0.999997615814209 0 0.002184694167226553 
vn 0.999997615814209 0 0.002184694167226553 
vn 0.999997615814209 0 0.002184694167226553 
vn 0.999997615814209 0 0.002184694167226553 
vn 0.999997615814209 0 0.002184694167226553 
vn 0.999997615814209 0 0.002184694167226553 
vn 0.999997615814209 0 0.002184694167226553 
vn 0.999997615814209 0 0.002184694167226553 
vn 0.999997615814209 0 0.002184694167226553 
vn 0.999997615814209 0 0.002184694167226553 
vn -0.999997615814209 -2.0682260971124217e-13 0.002184694167226553 
vn -0.999997615814209 -2.0682260971124217e-13 0.002184694167226553 
vn -0.999997615814209 -2.0682260971124217e-13 0.002184694167226553 
vn -0.999997615814209 -2.0682260971124217e-13 0.002184694167226553 
vn -0.999997615814209 -2.0682260971124217e-13 0.002184694167226553 
vn -0.999997615814209 -2.0682260971124217e-13 0.002184694167226553 
vn -0.999997615814209 -2.0682260971124217e-13 0.002184694167226553 
vn -0.999997615814209 -2.0682260971124217e-13 0.002184694167226553 
vn -0.999997615814209 -2.0682260971124217e-13 0.002184694167226553 
vn -0.999997615814209 -2.0682260971124217e-13 0.002184694167226553 
vn -0.999997615814209 -2.0682260971124217e-13 0.002184694167226553 
vn -0.999997615814209 -2.0682260971124217e-13 0.002184694167226553 
vn -0.999997615814209 -2.0682260971124217e-13 0.002184694167226553 
vn -0.999997615814209 -2.0682260971124217e-13 0.002184694167226553 
vn -0.999997615814209 -2.0682260971124217e-13 0.002184694167226553 
vn -0.999997615814209 -2.0682260971124217e-13 0.002184694167226553 
vn -0.999997615814209 -2.0682260971124217e-13 0.002184694167226553 
vn -0.999997615814209 -2.0682260971124217e-13 0.002184694167226553 
vn -0.999997615814209 -2.0682260971124217e-13 0.002184694167226553 
vn 3.097898456858039e-13 -0.999997615814209 0.002184694167226553 
vn 3.097898456858039e-13 -0.999997615814209 0.002184694167226553 
vn 3.097898456858039e-13 -0.999997615814209 0.002184694167226553 
vn 3.097898456858039e-13 -0.999997615814209 0.002184694167226553 
vn 3.097898456858039e-13 -0.999997615814209 0.002184694167226553 
vn 3.097898456858039e-13 -0.999997615814209 0.002184694167226553 
vn 3.097898456858039e-13 -0.999997615814209 0.002184694167226553 
vn 3.097898456858039e-13 -0.999997615814209 0.002184694167226553 
vn 0.999997615814209 0 0.002184694167226553 
vn 0.999997615814209 0 0.002184694167226553 
vn 0.999997615814209 0 0.002184694167226553 
vn 0.999997615814209 0 0.002184694167226553 
vn 0.999997615814209 0 0.002184694167226553 
vn 0.999997615814209 0 0.002184694167226553 
vn 0.999997615814209 0 0.002184694167226553 
vn 0.999997615814209 0 0.002184694167226553 
vn -2.0682311115474694e-13 0 -1 
vn -2.0682311115474694e-13 0 -1 
vn -2.0682311115474694e-13 0 -1 
vn -2.0682311115474694e-13 0 -1 
vn -0.999997615814209 -2.0682260971124217e-13 0.002184694167226553 
vn -0.999997615814209 -2.0682260971124217e-13 0.002184694167226553 
vn -0.999997615814209 -2.0682260971124217e-13 0.002184694167226553 
vn -0.999997615814209 -2.0682260971124217e-13 0.002184694167226553 
vn -2.0682311115474694e-13 0 -1 
vn -2.0682311115474694e-13 0 -1 
vn -2.0682311115474694e-13 0 -1 
vn -2.0682311115474694e-13 0 -1 
vn 0 0 1 
vn 0 0 1 
vn 0 0 1 
vn 0 0 1 
vn -1.0341130485562108e-13 0.999997615814209 0.002184694167226553 
vn -1.0341130485562108e-13 0.999997615814209 0.002184694167226553 
vn -1.0341130485562108e-13 0.999997615814209 0.002184694167226553 
vn -1.0341130485562108e-13 0.999997615814209 0.002184694167226553 
vn 3.097898456858039e-13 -0.999997615814209 0.002184694167226553 
vn 3.097898456858039e-13 -0.999997615814209 0.002184694167226553 
vn 3.097898456858039e-13 -0.999997615814209 0.002184694167226553 
vn 3.097898456858039e-13 -0.999997615814209 0.002184694167226553 
vn 3.097898456858039e-13 -0.999997615814209 0.002184694167226553 
vn 3.097898456858039e-13 -0.999997615814209 0.002184694167226553 
vn 3.097898456858039e-13 -0.999997615814209 0.002184694167226553 
vn 3.097898456858039e-13 -0.999997615814209 0.002184694167226553 
vn 3.097898456858039e-13 -0.999997615814209 0.002184694167226553 
vn 3.097898456858039e-13 -0.999997615814209 0.002184694167226553 
vn 3.097898456858039e-13 -0.999997615814209 0.002184694167226553 
vn 3.097898456858039e-13 -0.999997615814209 0.002184694167226553 
vn 3.097898456858039e-13 -0.999997615814209 0.002184694167226553 
vn 3.097898456858039e-13 -0.999997615814209 0.002184694167226553 
vn 3.097898456858039e-13 -0.999997615814209 0.002184694167226553 
vn 3.097898456858039e-13 -0.999997615814209 0.002184694167226553 
vn 0 0 1 
vn 0 0 1 
vn 0 0 1 
vn 0 0 1 
vn -0.999997615814209 -2.0682260971124217e-13 0.002184694167226553 
vn -0.999997615814209 -2.0682260971124217e-13 0.002184694167226553 
vn -0.999997615814209 -2.0682260971124217e-13 0.002184694167226553 
vn -0.999997615814209 -2.0682260971124217e-13 0.002184694167226553 
vn -0.999997615814209 -2.0682260971124217e-13 0.002184694167226553 
vn -0.999997615814209 -2.0682260971124217e-13 0.002184694167226553 
vn 3.097898456858039e-13 -0.999997615814209 0.002184694167226553 
vn 3.097898456858039e-13 -0.999997615814209 0.002184694167226553 
vn 3.097898456858039e-13 -0.999997615814209 0.002184694167226553 
vn 3.097898456858039e-13 -0.999997615814209 0.002184694167226553 
vn 0.999997615814209 0 0.002184694167226553 
vn 0.999997615814209 0 0.002184694167226553 
vn 0.999997615814209 0 0.002184694167226553 
vn 0.999997615814209 0 0.002184694167226553 
vn -0.999997615814209 -2.0682260971124217e-13 0.002184694167226553 
vn -0.999997615814209 -2.0682260971124217e-13 0.002184694167226553 
vn -0.999997615814209 -2.0682260971124217e-13 0.002184694167226553 
vn -0.999997615814209 -2.0682260971124217e-13 0.002184694167226553 
vn 0.999997615814209 0 0.002184694167226553 
vn 0.999997615814209 0 0.002184694167226553 
vt 0.990265429019928 0.5 
vt 0.990265429019928 0.5 
vt 0.990265429019928 0.5 
vt 0.990265429019928 0.5 
vt 0.9824219942092896 0.5 
vt 0.9824219942092896 0.5 
vt 0.9824219942092896 0.5 
vt 0.9824219942092896 0.5 
vt 0.9824219942092896 0.5 
vt 0.9824219942092896 0.5 
vt 0.9824219942092896 0.5 
vt 0.9824219942092896 0.5 
vt 0.9824219942092896 0.5 
vt 0.9862975478172302 0.5 
vt 0.9862975478172302 0.5 
vt 0.9862975478172302 0.5 
vt 0.9862975478172302 0.5 
vt 0.9862975478172302 0.5 
vt 0.9862975478172302 0.5 
vt 0.9862975478172302 0.5 
vt 0.9862975478172302 0.5 
vt 0.9862975478172302 0.5 
vt 0.9862975478172302 0.5 
vt 0.9862975478172302 0.5 
vt 0.9862975478172302 0.5 
vt 0.9862975478172302 0.5 
vt 0.9862975478172302 0.5 
vt 0.9862975478172302 0.5 
vt 0.9862975478172302 0.5 
vt 0.9862975478172302 0.5 
vt 0.9862975478172302 0.5 
vt 0.9862975478172302 0.5 
vt 0.9824219942092896 0.5 
vt 0.9824219942092896 0.5 
vt 0.9824219942092896 0.5 
vt 0.9824219942092896 0.5 
vt 0.9824219942092896 0.5 
vt 0.9824219942092896 0.5 
vt 0.9824219942092896 0.5 
vt 0.9824219942092896 0.5 
vt 0.9824219942092896 0.5 
vt 0.9824219942092896 0.5 
vt 0.9824219942092896 0.5 
vt 0.9824219942092896 0.5 
vt 0.9941409826278687 0.5 
vt 0.9941409826278687 0.5 
vt 0.9941409826278687 0.5 
vt 0.9941409826278687 0.5 
vt 0.9862975478172302 0.5 
vt 0.9862975478172302 0.5 
vt 0.9862975478172302 0.5 
vt 0.9862975478172302 0.5 
vt 0.9824219942092896 0.5 
vt 0.9824219942092896 0.5 
vt 0.9824219942092896 0.5 
vt 0.9824219942092896 0.5 
vt 0.9824219942092896 0.5 
vt 0.9824219942092896 0.5 
vt 0.9824219942092896 0.5 
vt 0.9824219942092896 0.5 
vt 0.9862975478172302 0.5 
vt 0.9862975478172302 0.5 
vt 0.9862975478172302 0.5 
vt 0.9862975478172302 0.5 
vt 0.9862975478172302 0.5 
vt 0.9862975478172302 0.5 
vt 0.9862975478172302 0.5 
vt 0.9862975478172302 0.5 
vt 0.9862975478172302 0.5 
vt 0.9862975478172302 0.5 
vt 0.9862975478172302 0.5 
vt 0.9862975478172302 0.5 
vt 0.9824219942092896 0.5 
vt 0.9824219942092896 0.5 
vt 0.9824219942092896 0.5 
vt 0.9824219942092896 0.5 
vt 0.9824219942092896 0.5 
vt 0.9824219942092896 0.5 
vt 0.9824219942092896 0.5 
vt 0.9824219942092896 0.5 
vt 0.9862975478172302 0.5 
vt 0.9862975478172302 0.5 
vt 0.9862975478172302 0.5 
vt 0.9862975478172302 0.5 
vt 0.9941409826278687 0.5 
vt 0.9941409826278687 0.5 
vt 0.9941409826278687 0.5 
vt 0.9941409826278687 0.5 
vt 0.9862975478172302 0.5 
vt 0.9862975478172302 0.5 
vt 0.9862975478172302 0.5 
vt 0.9862975478172302 0.5 
vt 0.9862975478172302 0.5 
vt 0.9862975478172302 0.5 
vt 0.9862975478172302 0.5 
vt 0.9862975478172302 0.5 
vt 0.990265429019928 0.5 
vt 0.990265429019928 0.5 
vt 0.990265429019928 0.5 
vt 0.990265429019928 0.5 
vt 0.9824219942092896 0.5 
vt 0.9824219942092896 0.5 
vt 0.9824219942092896 0.5 
vt 0.9824219942092896 0.5 
vt 0.990265429019928 0.5 
vt 0.990265429019928 0.5 
vt 0.990265429019928 0.5 
vt 0.990265429019928 0.5 
vt 0.9862975478172302 0.5 
vt 0.9862975478172302 0.5 
vt 0.9862975478172302 0.5 
vt 0.9862975478172302 0.5 
vt 0.9862975478172302 0.5 
vt 0.9862975478172302 0.5 
vt 0.9862975478172302 0.5 
vt 0.9862975478172302 0.5 
vt 0.990265429019928 0.5 
vt 0.990265429019928 0.5 
vt 0.990265429019928 0.5 
vt 0.990265429019928 0.5 
vt 0.9862975478172302 0.5 
vt 0.9862975478172302 0.5 
vt 0.9862975478172302 0.5 
vt 0.9862975478172302 0.5 
vt 0.990265429019928 0.5 
vt 0.990265429019928 0.5 
vt 0.990265429019928 0.5 
vt 0.990265429019928 0.5 
vt 0.9824219942092896 0.5 
vt 0.9824219942092896 0.5 
vt 0.9824219942092896 0.5 
vt 0.9824219942092896 0.5 
vt 0.9824219942092896 0.5 
vt 0.9824219942092896 0.5 
vt 0.9824219942092896 0.5 
vt 0.9824219942092896 0.5 
vt 0.990265429019928 0.5 
vt 0.990265429019928 0.5 
vt 0.990265429019928 0.5 
vt 0.990265429019928 0.5 
vt 0.9862975478172302 0.5 
vt 0.9862975478172302 0.5 
vt 0.9862975478172302 0.5 
vt 0.9862975478172302 0.5 
vt 0.9862975478172302 0.5 
vt 0.9862975478172302 0.5 
vt 0.9862975478172302 0.5 
vt 0.990265429019928 0.5 
vt 0.990265429019928 0.5 
vt 0.990265429019928 0.5 
vt 0.990265429019928 0.5 
vt 0.990265429019928 0.5 
vt 0.990265429019928 0.5 
vt 0.9824219942092896 0.5 
vt 0.9824219942092896 0.5 
vt 0.9824219942092896 0.5 
vt 0.9824219942092896 0.5 
vt 0.9862975478172302 0.5 
vt 0.9862975478172302 0.5 
vt 0.9862975478172302 0.5 
vt 0.9862975478172302 0.5 
vt 0.9862975478172302 0.5 
vt 0.9862975478172302 0.5 
vt 0.9862975478172302 0.5 
vt 0.9862975478172302 0.5 
vt 0.9862975478172302 0.5 
vt 0.9862975478172302 0.5 
vt 0.9862975478172302 0.5 
vt 0.9862975478172302 0.5 
vt 0.9862975478172302 0.5 
vt 0.9862975478172302 0.5 
vt 0.9862975478172302 0.5 
vt 0.9862975478172302 0.5 
vt 0.9862975478172302 0.5 
vt 0.9862975478172302 0.5 
vt 0.9862975478172302 0.5 
vt 0.9941409826278687 0.5 
vt 0.9941409826278687 0.5 
vt 0.9941409826278687 0.5 
vt 0.9941409826278687 0.5 
vt 0.9941409826278687 0.5 
vt 0.9941409826278687 0.5 
vt 0.9941409826278687 0.5 
vt 0.9941409826278687 0.5 
vt 0.9862975478172302 0.5 
vt 0.9862975478172302 0.5 
vt 0.9862975478172302 0.5 
vt 0.9862975478172302 0.5 
vt 0.9941409826278687 0.5 
vt 0.9941409826278687 0.5 
vt 0.9941409826278687 0.5 
vt 0.9941409826278687 0.5 
vt 0.9862975478172302 0.5 
vt 0.9862975478172302 0.5 
vt 0.9862975478172302 0.5 
vt 0.9862975478172302 0.5 
vt 0.9941409826278687 0.5 
vt 0.9941409826278687 0.5 
vt 0.9941409826278687 0.5 
vt 0.9941409826278687 0.5 
vt 0.9862975478172302 0.5 
vt 0.9862975478172302 0.5 
vt 0.9862975478172302 0.5 
vt 0.9862975478172302 0.5 
vt 0.990265429019928 0.5 
vt 0.990265429019928 0.5 
vt 0.990265429019928 0.5 
vt 0.990265429019928 0.5 
vt 0.9862975478172302 0.5 
vt 0.9862975478172302 0.5 
vt 0.9862975478172302 0.5 
vt 0.9862975478172302 0.5 
vt 0.9824219942092896 0.5 
vt 0.9824219942092896 0.5 
vt 0.9824219942092896 0.5 
vt 0.9824219942092896 0.5 
vt 0.9862975478172302 0.5 
vt 0.9862975478172302 0.5 
vt 0.9862975478172302 0.5 
vt 0.9862975478172302 0.5 
vt 0.9862975478172302 0.5 
vt 0.9862975478172302 0.5 
vt 0.9862975478172302 0.5 
vt 0.9862975478172302 0.5 
vt 0.9862975478172302 0.5 
vt 0.9862975478172302 0.5 
vt 0.9941409826278687 0.5 
vt 0.9941409826278687 0.5 
vt 0.9941409826278687 0.5 
vt 0.9941409826278687 0.5 
vt 0.9824219942092896 0.5 
vt 0.9824219942092896 0.5 
vt 0.9824219942092896 0.5 
vt 0.9824219942092896 0.5 
vt 0.9941409826278687 0.5 
vt 0.9941409826278687 0.5 
vt 0.9941409826278687 0.5 
vt 0.9941409826278687 0.5 
vt 0.9824219942092896 0.5 
vt 0.9824219942092896 0.5 
vt 0.9824219942092896 0.5 
vt 0.9824219942092896 0.5 
vt 0.9824219942092896 0.5 
vt 0.9824219942092896 0.5 
vt 0.9824219942092896 0.5 
vt 0.9824219942092896 0.5 
vt 0.9824219942092896 0.5 
vt 0.9824219942092896 0.5 
vt 0.9862975478172302 0.5 
vt 0.9862975478172302 0.5 
vt 0.9862975478172302 0.5 
vt 0.9941409826278687 0.5 
vt 0.9941409826278687 0.5 
vt 0.9941409826278687 0.5 
vt 0.9941409826278687 0.5 
vt 0.990265429019928 0.5 
vt 0.990265429019928 0.5 
vt 0.990265429019928 0.5 
vt 0.990265429019928 0.5 
vt 0.990265429019928 0.5 
vt 0.990265429019928 0.5 
vt 0.990265429019928 0.5 
vt 0.990265429019928 0.5 
vt 0.9824219942092896 0.5 
vt 0.9824219942092896 0.5 
vt 0.9824219942092896 0.5 
vt 0.9824219942092896 0.5 
vt 0.9824219942092896 0.5 
vt 0.9824219942092896 0.5 
vt 0.9824219942092896 0.5 
vt 0.9824219942092896 0.5 
vt 0.9862975478172302 0.5 
vt 0.9862975478172302 0.5 
vt 0.9862975478172302 0.5 
vt 0.9941409826278687 0.5 
vt 0.9941409826278687 0.5 
vt 0.9941409826278687 0.5 
vt 0.9941409826278687 0.5 
vt 0.9862975478172302 0.5 
vt 0.9862975478172302 0.5 
vt 0.9862975478172302 0.5 
vt 0.9862975478172302 0.5 
vt 0.9824219942092896 0.5 
vt 0.9824219942092896 0.5 
vt 0.9824219942092896 0.5 
vt 0.9824219942092896 0.5 
vt 0.990265429019928 0.5 
vt 0.990265429019928 0.5 
vt 0.990265429019928 0.5 
vt 0.990265429019928 0.5 
vt 0.9941409826278687 0.5 
vt 0.9941409826278687 0.5 
vt 0.9941409826278687 0.5 
vt 0.9941409826278687 0.5 
vt 0.9941409826278687 0.5 
vt 0.9941409826278687 0.5 
vt 0.9941409826278687 0.5 
vt 0.9941409826278687 0.5 
vt 0.9941409826278687 0.5 
vt 0.9941409826278687 0.5 
vt 0.9941409826278687 0.5 
vt 0.9941409826278687 0.5 
vt 0.9862975478172302 0.5 
vt 0.9862975478172302 0.5 
vt 0.9862975478172302 0.5 
vt 0.9862975478172302 0.5 
vt 0.9862975478172302 0.5 
vt 0.9862975478172302 0.5 
vt 0.9862975478172302 0.5 
vt 0.9862975478172302 0.5 
vt 0.9824219942092896 0.5 
vt 0.9824219942092896 0.5 
vt 0.9824219942092896 0.5 
vt 0.9824219942092896 0.5 
vt 0.9824219942092896 0.5 
vt 0.9824219942092896 0.5 
vt 0.9824219942092896 0.5 
vt 0.9824219942092896 0.5 
vt 0.990265429019928 0.5 
vt 0.990265429019928 0.5 
vt 0.990265429019928 0.5 
vt 0.990265429019928 0.5 
vt 0.990265429019928 0.5 
vt 0.990265429019928 0.5 
vt 0.990265429019928 0.5 
vt 0.990265429019928 0.5 
vt 0.990265429019928 0.5 
vt 0.990265429019928 0.5 
vt 0.990265429019928 0.5 
vt 0.990265429019928 0.5 
vt 0.9862975478172302 0.5 
vt 0.9862975478172302 0.5 
vt 0.9862975478172302 0.5 
vt 0.9862975478172302 0.5 
vt 0.9941409826278687 0.5 
vt 0.9941409826278687 0.5 
vt 0.9941409826278687 0.5 
vt 0.9941409826278687 0.5 
vt 0.9862975478172302 0.5 
vt 0.9862975478172302 0.5 
vt 0.9862975478172302 0.5 
vt 0.9862975478172302 0.5 
vt 0.9862975478172302 0.5 
vt 0.9862975478172302 0.5 
vt 0.9862975478172302 0.5 
vt 0.9862975478172302 0.5 
vt 0.9862975478172302 0.5 
vt 0.9862975478172302 0.5 
vt 0.9824219942092896 0.5 
vt 0.9862975478172302 0.5 
vt 0.9824219942092896 0.5 
vt 0.9862975478172302 0.5 
vt 0.9824219942092896 0.5 
vt 0.9862975478172302 0.5 
s on 
f 1/1/1 2/2/2 3/3/3 
f 2/2/2 4/4/4 3/3/3 
f 3/3/3 4/4/4 4/4/4 
f 4/4/4 5/5/5 4/4/4 
f 4/4/4 5/5/5 5/5/5 
f 5/5/5 6/6/6 5/5/5 
f 5/5/5 6/6/6 7/7/7 
f 6/6/6 8/8/8 7/7/7 
f 7/7/7 8/8/8 9/9/9 
f 8/8/8 10/10/10 9/9/9 
f 9/9/9 10/10/10 11/11/11 
f 10/10/10 12/12/12 11/11/11 
f 11/11/11 12/12/12 13/13/13 
f 12/12/12 13/13/13 13/13/13 
f 13/13/13 13/13/13 14/14/14 
f 13/13/13 14/14/14 14/14/14 
f 14/14/14 14/14/14 14/14/14 
f 14/14/14 15/15/15 14/14/14 
f 14/14/14 15/15/15 16/16/16 
f 15/15/15 17/17/17 16/16/16 
f 16/16/16 17/17/17 18/18/18 
f 17/17/17 18/18/18 18/18/18 
f 18/18/18 18/18/18 15/15/15 
f 18/18/18 15/15/15 15/15/15 
f 15/15/15 15/15/15 15/15/15 
f 15/15/15 19/19/19 15/15/15 
f 15/15/15 19/19/19 17/17/17 
f 19/19/19 20/20/20 17/17/17 
f 17/17/17 20/20/20 20/20/20 
f 20/20/20 19/19/19 20/20/20 
f 20/20/20 19/19/19 19/19/19 
f 19/19/19 21/21/21 19/19/19 
f 19/19/19 21/21/21 20/20/20 
f 21/21/21 22/22/22 20/20/20 
f 20/20/20 22/22/22 22/22/22 
f 22/22/22 21/21/21 22/22/22 
f 22/22/22 21/21/21 21/21/21 
f 21/21/21 23/23/23 21/21/21 
f 21/21/21 23/23/23 22/22/22 
f 23/23/23 24/24/24 22/22/22 
f 22/22/22 24/24/24 18/18/18 
f 24/24/24 16/16/16 18/18/18 
f 18/18/18 16/16/16 16/16/16 
f 16/16/16 24/24/24 16/16/16 
f 16/16/16 24/24/24 24/24/24 
f 24/24/24 25/25/25 24/24/24 
f 24/24/24 25/25/25 16/16/16 
f 25/25/25 26/26/26 16/16/16 
f 16/16/16 26/26/26 27/27/27 
f 26/26/26 27/27/27 27/27/27 
f 27/27/27 27/27/27 16/16/16 
f 27/27/27 16/16/16 16/16/16 
f 16/16/16 16/16/16 16/16/16 
f 16/16/16 27/27/27 16/16/16 
f 16/16/16 27/27/27 28/28/28 
f 27/27/27 29/29/29 28/28/28 
f 28/28/28 29/29/29 30/30/30 
f 29/29/29 21/21/21 30/30/30 
f 30/30/30 21/21/21 21/21/21 
f 21/21/21 29/29/29 21/21/21 
f 21/21/21 29/29/29 29/29/29 
f 29/29/29 31/31/31 29/29/29 
f 29/29/29 31/31/31 21/21/21 
f 31/31/31 32/32/32 21/21/21 
f 21/21/21 32/32/32 23/23/23 
f 32/32/32 23/23/23 23/23/23 
f 23/23/23 23/23/23 31/31/31 
f 23/23/23 31/31/31 31/31/31 
f 31/31/31 31/31/31 31/31/31 
f 31/31/31 26/26/26 31/31/31 
f 31/31/31 26/26/26 32/32/32 
f 26/26/26 25/25/25 32/32/32 
f 32/32/32 25/25/25 25/25/25 
f 25/25/25 33/33/33 25/25/25 
f 25/25/25 33/33/33 33/33/33 
f 33/33/33 34/34/34 33/33/33 
f 33/33/33 34/34/34 35/35/35 
f 34/34/34 36/36/36 35/35/35 
f 35/35/35 36/36/36 37/37/37 
f 36/36/36 38/38/38 37/37/37 
f 37/37/37 38/38/38 38/38/38 
f 38/38/38 36/36/36 38/38/38 
f 38/38/38 36/36/36 39/39/39 
f 36/36/36 40/40/40 39/39/39 
f 39/39/39 40/40/40 40/40/40 
f 40/40/40 41/41/41 40/40/40 
f 40/40/40 41/41/41 41/41/41 
f 41/41/41 42/42/42 41/41/41 
f 41/41/41 42/42/42 43/43/43 
f 42/42/42 44/44/44 43/43/43 
f 43/43/43 44/44/44 44/44/44 
f 44/44/44 45/45/45 44/44/44 
f 44/44/44 45/45/45 45/45/45 
f 45/45/45 46/46/46 45/45/45 
f 45/45/45 46/46/46 47/47/47 
f 46/46/46 48/48/48 47/47/47 
f 47/47/47 48/48/48 48/48/48 
f 48/48/48 49/49/49 48/48/48 
f 48/48/48 49/49/49 49/49/49 
f 49/49/49 50/50/50 49/49/49 
f 49/49/49 50/50/50 51/51/51 
f 50/50/50 52/52/52 51/51/51 
f 51/51/51 52/52/52 52/52/52 
f 52/52/52 53/53/53 52/52/52 
f 52/52/52 53/53/53 53/53/53 
f 53/53/53 54/54/54 53/53/53 
f 53/53/53 54/54/54 55/55/55 
f 54/54/54 56/56/56 55/55/55 
f 55/55/55 56/56/56 56/56/56 
f 56/56/56 57/57/57 56/56/56 
f 56/56/56 57/57/57 57/57/57 
f 57/57/57 58/58/58 57/57/57 
f 57/57/57 58/58/58 59/59/59 
f 58/58/58 60/60/60 59/59/59 
f 59/59/59 60/60/60 60/60/60 
f 60/60/60 61/61/61 60/60/60 
f 60/60/60 61/61/61 61/61/61 
f 61/61/61 62/62/62 61/61/61 
f 61/61/61 62/62/62 63/63/63 
f 62/62/62 64/64/64 63/63/63 
f 63/63/63 64/64/64 64/64/64 
f 64/64/64 65/65/65 64/64/64 
f 64/64/64 65/65/65 65/65/65 
f 65/65/65 66/66/66 65/65/65 
f 65/65/65 66/66/66 67/67/67 
f 66/66/66 68/68/68 67/67/67 
f 67/67/67 68/68/68 68/68/68 
f 68/68/68 69/69/69 68/68/68 
f 68/68/68 69/69/69 69/69/69 
f 69/69/69 70/70/70 69/69/69 
f 69/69/69 70/70/70 71/71/71 
f 70/70/70 72/72/72 71/71/71 
f 71/71/71 72/72/72 72/72/72 
f 72/72/72 73/73/73 72/72/72 
f 72/72/72 73/73/73 73/73/73 
f 73/73/73 74/74/74 73/73/73 
f 73/73/73 74/74/74 75/75/75 
f 74/74/74 76/76/76 75/75/75 
f 75/75/75 76/76/76 76/76/76 
f 76/76/76 77/77/77 76/76/76 
f 76/76/76 77/77/77 77/77/77 
f 77/77/77 78/78/78 77/77/77 
f 77/77/77 78/78/78 79/79/79 
f 78/78/78 80/80/80 79/79/79 
f 79/79/79 80/80/80 80/80/80 
f 80/80/80 81/81/81 80/80/80 
f 80/80/80 81/81/81 81/81/81 
f 81/81/81 82/82/82 81/81/81 
f 81/81/81 82/82/82 83/83/83 
f 82/82/82 84/84/84 83/83/83 
f 83/83/83 84/84/84 84/84/84 
f 84/84/84 85/85/85 84/84/84 
f 84/84/84 85/85/85 85/85/85 
f 85/85/85 86/86/86 85/85/85 
f 85/85/85 86/86/86 87/87/87 
f 86/86/86 88/88/88 87/87/87 
f 87/87/87 88/88/88 88/88/88 
f 88/88/88 89/89/89 88/88/88 
f 88/88/88 89/89/89 89/89/89 
f 89/89/89 90/90/90 89/89/89 
f 89/89/89 90/90/90 91/91/91 
f 90/90/90 92/92/92 91/91/91 
f 91/91/91 92/92/92 92/92/92 
f 92/92/92 93/93/93 92/92/92 
f 92/92/92 93/93/93 93/93/93 
f 93/93/93 94/94/94 93/93/93 
f 93/93/93 94/94/94 95/95/95 
f 94/94/94 96/96/96 95/95/95 
f 95/95/95 96/96/96 96/96/96 
f 96/96/96 97/97/97 96/96/96 
f 96/96/96 97/97/97 97/97/97 
f 97/97/97 98/98/98 97/97/97 
f 97/97/97 98/98/98 99/99/99 
f 98/98/98 100/100/100 99/99/99 
f 99/99/99 100/100/100 100/100/100 
f 100/100/100 101/101/101 100/100/100 
f 100/100/100 101/101/101 101/101/101 
f 101/101/101 102/102/102 101/101/101 
f 101/101/101 102/102/102 103/103/103 
f 102/102/102 104/104/104 103/103/103 
f 103/103/103 104/104/104 104/104/104 
f 104/104/104 105/105/105 104/104/104 
f 104/104/104 105/105/105 105/105/105 
f 105/105/105 106/106/106 105/105/105 
f 105/105/105 106/106/106 107/107/107 
f 106/106/106 108/108/108 107/107/107 
f 107/107/107 108/108/108 108/108/108 
f 108/108/108 109/109/109 108/108/108 
f 108/108/108 109/109/109 109/109/109 
f 109/109/109 110/110/110 109/109/109 
f 109/109/109 110/110/110 111/111/111 
f 110/110/110 112/112/112 111/111/111 
f 111/111/111 112/112/112 112/112/112 
f 112/112/112 113/113/113 112/112/112 
f 112/112/112 113/113/113 113/113/113 
f 113/113/113 114/114/114 113/113/113 
f 113/113/113 114/114/114 115/115/115 
f 114/114/114 116/116/116 115/115/115 
f 115/115/115 116/116/116 116/116/116 
f 116/116/116 117/117/117 116/116/116 
f 116/116/116 117/117/117 117/117/117 
f 117/117/117 118/118/118 117/117/117 
f 117/117/117 118/118/118 119/119/119 
f 118/118/118 120/120/120 119/119/119 
f 119/119/119 120/120/120 120/120/120 
f 120/120/120 121/121/121 120/120/120 
f 120/120/120 121/121/121 121/121/121 
f 121/121/121 122/122/122 121/121/121 
f 121/121/121 122/122/122 123/123/123 
f 122/122/122 124/124/124 123/123/123 
f 123/123/123 124/124/124 124/124/124 
f 124/124/124 125/125/125 124/124/124 
f 124/124/124 125/125/125 125/125/125 
f 125/125/125 126/126/126 125/125/125 
f 125/125/125 126/126/126 127/127/127 
f 126/126/126 128/128/128 127/127/127 
f 127/127/127 128/128/128 128/128/128 
f 128/128/128 129/129/129 128/128/128 
f 128/128/128 129/129/129 129/129/129 
f 129/129/129 130/130/130 129/129/129 
f 129/129/129 130/130/130 131/131/131 
f 130/130/130 132/132/132 131/131/131 
f 131/131/131 132/132/132 132/132/132 
f 132/132/132 133/133/133 132/132/132 
f 132/132/132 133/133/133 133/133/133 
f 133/133/133 134/134/134 133/133/133 
f 133/133/133 134/134/134 135/135/135 
f 134/134/134 136/136/136 135/135/135 
f 135/135/135 136/136/136 136/136/136 
f 136/136/136 137/137/137 136/136/136 
f 136/136/136 137/137/137 137/137/137 
f 137/137/137 138/138/138 137/137/137 
f 137/137/137 138/138/138 139/139/139 
f 138/138/138 140/140/140 139/139/139 
f 139/139/139 140/140/140 140/140/140 
f 140/140/140 141/141/141 140/140/140 
f 140/140/140 141/141/141 141/141/141 
f 141/141/141 142/142/142 141/141/141 
f 141/141/141 142/142/142 143/143/143 
f 142/142/142 144/144/144 143/143/143 
f 143/143/143 144/144/144 144/144/144 
f 144/144/144 142/142/142 144/144/144 
f 144/144/144 142/142/142 145/145/145 
f 142/142/142 146/146/146 145/145/145 
f 145/145/145 146/146/146 147/147/147 
f 146/146/146 147/147/147 147/147/147 
f 147/147/147 147/147/147 148/148/148 
f 147/147/147 148/148/148 148/148/148 
f 148/148/148 148/148/148 148/148/148 
f 148/148/148 149/149/149 148/148/148 
f 148/148/148 149/149/149 150/150/150 
f 149/149/149 125/125/125 150/150/150 
f 150/150/150 125/125/125 125/125/125 
f 125/125/125 151/151/151 125/125/125 
f 125/125/125 151/151/151 151/151/151 
f 151/151/151 150/150/150 151/151/151 
f 151/151/151 150/150/150 152/152/152 
f 150/150/150 153/153/153 152/152/152 
f 152/152/152 153/153/153 153/153/153 
f 153/153/153 154/154/154 153/153/153 
f 153/153/153 154/154/154 154/154/154 
f 154/154/154 155/155/155 154/154/154 
f 154/154/154 155/155/155 156/156/156 
f 155/155/155 157/157/157 156/156/156 
f 156/156/156 157/157/157 157/157/157 
f 157/157/157 158/158/158 157/157/157 
f 157/157/157 158/158/158 158/158/158 
f 158/158/158 159/159/159 158/158/158 
f 158/158/158 159/159/159 160/160/160 
f 159/159/159 161/161/161 160/160/160 
f 160/160/160 161/161/161 162/162/162 
f 161/161/161 163/163/163 162/162/162 
f 162/162/162 163/163/163 164/164/164 
f 163/163/163 165/165/165 164/164/164 
f 164/164/164 165/165/165 166/166/166 
f 165/165/165 167/167/167 166/166/166 
f 166/166/166 167/167/167 167/167/167 
f 167/167/167 165/165/165 167/167/167 
f 167/167/167 165/165/165 165/165/165 
f 165/165/165 168/168/168 165/165/165 
f 165/165/165 168/168/168 167/167/167 
f 168/168/168 159/159/159 167/167/167 
f 167/167/167 159/159/159 169/169/169 
f 159/159/159 170/170/170 169/169/169 
f 169/169/169 170/170/170 171/171/171 
f 170/170/170 172/172/172 171/171/171 
f 171/171/171 172/172/172 164/164/164 
f 172/172/172 173/173/173 164/164/164 
f 164/164/164 173/173/173 174/174/174 
f 173/173/173 175/175/175 174/174/174 
f 174/174/174 175/175/175 175/175/175 
f 175/175/175 170/170/170 175/175/175 
f 175/175/175 170/170/170 170/170/170 
f 170/170/170 159/159/159 170/170/170 
f 170/170/170 159/159/159 176/176/176 
f 159/159/159 175/175/175 176/176/176 
f 176/176/176 175/175/175 173/173/173 
f 175/175/175 173/173/173 173/173/173 
f 173/173/173 173/173/173 177/177/177 
f 173/173/173 177/177/177 177/177/177 
f 177/177/177 177/177/177 177/177/177 
f 177/177/177 178/178/178 177/177/177 
f 177/177/177 178/178/178 179/179/179 
f 178/178/178 180/180/180 179/179/179 
f 179/179/179 180/180/180 180/180/180 
f 180/180/180 181/181/181 180/180/180 
f 180/180/180 181/181/181 181/181/181 
f 181/181/181 182/182/182 181/181/181 
f 181/181/181 182/182/182 183/183/183 
f 182/182/182 184/184/184 183/183/183 
f 183/183/183 184/184/184 184/184/184 
f 184/184/184 185/185/185 184/184/184 
f 184/184/184 185/185/185 185/185/185 
f 185/185/185 186/186/186 185/185/185 
f 185/185/185 186/186/186 187/187/187 
f 186/186/186 188/188/188 187/187/187 
f 187/187/187 188/188/188 188/188/188 
f 188/188/188 189/189/189 188/188/188 
f 188/188/188 189/189/189 189/189/189 
f 189/189/189 190/190/190 189/189/189 
f 189/189/189 190/190/190 191/191/191 
f 190/190/190 192/192/192 191/191/191 
f 191/191/191 192/192/192 192/192/192 
f 192/192/192 193/193/193 192/192/192 
f 192/192/192 193/193/193 193/193/193 
f 193/193/193 194/194/194 193/193/193 
f 193/193/193 194/194/194 195/195/195 
f 194/194/194 196/196/196 195/195/195 
f 195/195/195 196/196/196 196/196/196 
f 196/196/196 197/197/197 196/196/196 
f 196/196/196 197/197/197 197/197/197 
f 197/197/197 198/198/198 197/197/197 
f 197/197/197 198/198/198 199/199/199 
f 198/198/198 200/200/200 199/199/199 
f 199/199/199 200/200/200 200/200/200 
f 200/200/200 201/201/201 200/200/200 
f 200/200/200 201/201/201 201/201/201 
f 201/201/201 202/202/202 201/201/201 
f 201/201/201 202/202/202 203/203/203 
f 202/202/202 204/204/204 203/203/203 
f 203/203/203 204/204/204 204/204/204 
f 204/204/204 205/205/205 204/204/204 
f 204/204/204 205/205/205 205/205/205 
f 205/205/205 206/206/206 205/205/205 
f 205/205/205 206/206/206 207/207/207 
f 206/206/206 208/208/208 207/207/207 
f 207/207/207 208/208/208 208/208/208 
f 208/208/208 209/209/209 208/208/208 
f 208/208/208 209/209/209 209/209/209 
f 209/209/209 210/210/210 209/209/209 
f 209/209/209 210/210/210 211/211/211 
f 210/210/210 212/212/212 211/211/211 
f 211/211/211 212/212/212 212/212/212 
f 212/212/212 213/213/213 212/212/212 
f 212/212/212 213/213/213 213/213/213 
f 213/213/213 214/214/214 213/213/213 
f 213/213/213 214/214/214 215/215/215 
f 214/214/214 216/216/216 215/215/215 
f 215/215/215 216/216/216 216/216/216 
f 216/216/216 217/217/217 216/216/216 
f 216/216/216 217/217/217 217/217/217 
f 217/217/217 218/218/218 217/217/217 
f 217/217/217 218/218/218 219/219/219 
f 218/218/218 220/220/220 219/219/219 
f 219/219/219 220/220/220 221/221/221 
f 220/220/220 221/221/221 221/221/221 
f 221/221/221 221/221/221 219/219/219 
f 221/221/221 219/219/219 219/219/219 
f 219/219/219 219/219/219 219/219/219 
f 219/219/219 221/221/221 219/219/219 
f 219/219/219 221/221/221 222/222/222 
f 221/221/221 223/223/223 222/222/222 
f 222/222/222 223/223/223 223/223/223 
f 223/223/223 224/224/224 223/223/223 
f 223/223/223 224/224/224 224/224/224 
f 224/224/224 221/221/221 224/224/224 
f 224/224/224 221/221/221 225/225/225 
f 221/221/221 226/226/226 225/225/225 
f 225/225/225 226/226/226 226/226/226 
f 226/226/226 227/227/227 226/226/226 
f 226/226/226 227/227/227 227/227/227 
f 227/227/227 228/228/228 227/227/227 
f 227/227/227 228/228/228 229/229/229 
f 228/228/228 230/230/230 229/229/229 
f 229/229/229 230/230/230 230/230/230 
f 230/230/230 231/231/231 230/230/230 
f 230/230/230 231/231/231 231/231/231 
f 231/231/231 232/232/232 231/231/231 
f 231/231/231 232/232/232 233/233/233 
f 232/232/232 234/234/234 233/233/233 
f 233/233/233 234/234/234 234/234/234 
f 234/234/234 235/235/235 234/234/234 
f 234/234/234 235/235/235 235/235/235 
f 235/235/235 236/236/236 235/235/235 
f 235/235/235 236/236/236 237/237/237 
f 236/236/236 238/238/238 237/237/237 
f 237/237/237 238/238/238 238/238/238 
f 238/238/238 239/239/239 238/238/238 
f 238/238/238 239/239/239 239/239/239 
f 239/239/239 240/240/240 239/239/239 
f 239/239/239 240/240/240 241/241/241 
f 240/240/240 242/242/242 241/241/241 
f 241/241/241 242/242/242 243/243/243 
f 242/242/242 243/243/243 243/243/243 
f 243/243/243 243/243/243 241/241/241 
f 243/243/243 241/241/241 241/241/241 
f 241/241/241 241/241/241 241/241/241 
f 241/241/241 243/243/243 241/241/241 
f 241/241/241 243/243/243 244/244/244 
f 243/243/243 245/245/245 244/244/244 
f 244/244/244 245/245/245 246/246/246 
f 245/245/245 247/247/247 246/246/246 
f 246/246/246 247/247/247 248/248/248 
f 247/247/247 248/248/248 248/248/248 
f 248/248/248 248/248/248 249/249/249 
f 248/248/248 249/249/249 249/249/249 
f 249/249/249 249/249/249 249/249/249 
f 249/249/249 223/223/223 249/249/249 
f 249/249/249 223/223/223 250/250/250 
f 223/223/223 251/251/251 250/250/250 
f 250/250/250 251/251/251 251/251/251 
f 251/251/251 252/252/252 251/251/251 
f 251/251/251 252/252/252 252/252/252 
f 252/252/252 253/253/253 252/252/252 
f 252/252/252 253/253/253 254/254/254 
f 253/253/253 255/255/255 254/254/254 
f 254/254/254 255/255/255 255/255/255 
f 255/255/255 256/256/256 255/255/255 
f 255/255/255 256/256/256 256/256/256 
f 256/256/256 257/257/257 256/256/256 
f 256/256/256 257/257/257 258/258/258 
f 257/257/257 259/259/259 258/258/258 
f 258/258/258 259/259/259 259/259/259 
f 259/259/259 260/260/260 259/259/259 
f 259/259/259 260/260/260 260/260/260 
f 260/260/260 261/261/261 260/260/260 
f 260/260/260 261/261/261 262/262/262 
f 261/261/261 263/263/263 262/262/262 
f 262/262/262 263/263/263 263/263/263 
f 263/263/263 264/264/264 263/263/263 
f 263/263/263 264/264/264 264/264/264 
f 264/264/264 265/265/265 264/264/264 
f 264/264/264 265/265/265 266/266/266 
f 265/265/265 267/267/267 266/266/266 
f 266/266/266 267/267/267 268/268/268 
f 267/267/267 268/268/268 268/268/268 
f 268/268/268 268/268/268 268/268/268 
f 268/268/268 269/269/269 268/268/268 
f 268/268/268 269/269/269 266/266/266 
f 269/269/269 270/270/270 266/266/266 
f 266/266/266 270/270/270 271/271/271 
f 270/270/270 271/271/271 271/271/271 
f 271/271/271 271/271/271 272/272/272 
f 271/271/271 272/272/272 272/272/272 
f 272/272/272 272/272/272 272/272/272 
f 272/272/272 273/273/273 272/272/272 
f 272/272/272 273/273/273 143/143/143 
f 273/273/273 274/274/274 143/143/143 
f 143/143/143 274/274/274 274/274/274 
f 274/274/274 275/275/275 274/274/274 
f 274/274/274 275/275/275 275/275/275 
f 275/275/275 276/276/276 275/275/275 
f 275/275/275 276/276/276 277/277/277 
f 276/276/276 278/278/278 277/277/277 
f 277/277/277 278/278/278 278/278/278 
f 278/278/278 279/279/279 278/278/278 
f 278/278/278 279/279/279 279/279/279 
f 279/279/279 280/280/280 279/279/279 
f 279/279/279 280/280/280 281/281/281 
f 280/280/280 282/282/282 281/281/281 
f 281/281/281 282/282/282 282/282/282 
f 282/282/282 283/283/283 282/282/282 
f 282/282/282 283/283/283 283/283/283 
f 283/283/283 284/284/284 283/283/283 
f 283/283/283 284/284/284 285/285/285 
f 284/284/284 286/286/286 285/285/285 
f 285/285/285 286/286/286 286/286/286 
f 286/286/286 287/287/287 286/286/286 
f 286/286/286 287/287/287 287/287/287 
f 287/287/287 288/288/288 287/287/287 
f 287/287/287 288/288/288 289/289/289 
f 288/288/288 290/290/290 289/289/289 
f 289/289/289 290/290/290 290/290/290 
f 290/290/290 291/291/291 290/290/290 
f 290/290/290 291/291/291 291/291/291 
f 291/291/291 292/292/292 291/291/291 
f 291/291/291 292/292/292 293/293/293 
f 292/292/292 294/294/294 293/293/293 
f 293/293/293 294/294/294 294/294/294 
f 294/294/294 295/295/295 294/294/294 
f 294/294/294 295/295/295 295/295/295 
f 295/295/295 296/296/296 295/295/295 
f 295/295/295 296/296/296 297/297/297 
f 296/296/296 298/298/298 297/297/297 
f 297/297/297 298/298/298 298/298/298 
f 298/298/298 299/299/299 298/298/298 
f 298/298/298 299/299/299 299/299/299 
f 299/299/299 300/300/300 299/299/299 
f 299/299/299 300/300/300 301/301/301 
f 300/300/300 302/302/302 301/301/301 
f 301/301/301 302/302/302 302/302/302 
f 302/302/302 303/303/303 302/302/302 
f 302/302/302 303/303/303 303/303/303 
f 303/303/303 304/304/304 303/303/303 
f 303/303/303 304/304/304 305/305/305 
f 304/304/304 306/306/306 305/305/305 
f 305/305/305 306/306/306 306/306/306 
f 306/306/306 307/307/307 306/306/306 
f 306/306/306 307/307/307 307/307/307 
f 307/307/307 308/308/308 307/307/307 
f 307/307/307 308/308/308 309/309/309 
f 308/308/308 310/310/310 309/309/309 
f 309/309/309 310/310/310 310/310/310 
f 310/310/310 311/311/311 310/310/310 
f 310/310/310 311/311/311 311/311/311 
f 311/311/311 312/312/312 311/311/311 
f 311/311/311 312/312/312 313/313/313 
f 312/312/312 314/314/314 313/313/313 
f 313/313/313 314/314/314 314/314/314 
f 314/314/314 315/315/315 314/314/314 
f 314/314/314 315/315/315 315/315/315 
f 315/315/315 316/316/316 315/315/315 
f 315/315/315 316/316/316 317/317/317 
f 316/316/316 318/318/318 317/317/317 
f 317/317/317 318/318/318 318/318/318 
f 318/318/318 319/319/319 318/318/318 
f 318/318/318 319/319/319 319/319/319 
f 319/319/319 320/320/320 319/319/319 
f 319/319/319 320/320/320 321/321/321 
f 320/320/320 322/322/322 321/321/321 
f 321/321/321 322/322/322 322/322/322 
f 322/322/322 320/320/320 322/322/322 
f 322/322/322 320/320/320 320/320/320 
f 320/320/320 323/323/323 320/320/320 
f 320/320/320 323/323/323 322/322/322 
f 323/323/323 324/324/324 322/322/322 
f 322/322/322 324/324/324 324/324/324 
f 324/324/324 323/323/323 324/324/324 
f 324/324/324 323/323/323 323/323/323 
f 323/323/323 325/325/325 323/323/323 
f 323/323/323 325/325/325 324/324/324 
f 325/325/325 326/326/326 324/324/324 
f 324/324/324 326/326/326 327/327/327 
f 326/326/326 328/328/328 327/327/327 
f 327/327/327 328/328/328 328/328/328 
f 328/328/328 324/324/324 328/328/328 
f 328/328/328 324/324/324 324/324/324 
f 324/324/324 327/327/327 324/324/324 
f 324/324/324 327/327/327 329/329/329 
f 327/327/327 330/330/330 329/329/329 
f 329/329/329 330/330/330 330/330/330 
f 330/330/330 331/331/331 330/330/330 
f 330/330/330 331/331/331 331/331/331 
f 331/331/331 332/332/332 331/331/331 
f 331/331/331 332/332/332 333/333/333 
f 332/332/332 334/334/334 333/333/333 
f 333/333/333 334/334/334 334/334/334 
f 334/334/334 335/335/335 334/334/334 
f 334/334/334 335/335/335 335/335/335 
f 335/335/335 336/336/336 335/335/335 
f 335/335/335 336/336/336 337/337/337 
f 336/336/336 338/338/338 337/337/337 
f 337/337/337 338/338/338 338/338/338 
f 338/338/338 339/339/339 338/338/338 
f 338/338/338 339/339/339 339/339/339 
f 339/339/339 340/340/340 339/339/339 
f 339/339/339 340/340/340 142/142/142 
f 340/340/340 201/201/201 142/142/142 
f 142/142/142 201/201/201 201/201/201 
f 201/201/201 341/341/341 201/201/201 
f 201/201/201 341/341/341 341/341/341 
f 341/341/341 342/342/342 341/341/341 
f 341/341/341 342/342/342 343/343/343 
f 342/342/342 344/344/344 343/343/343 
f 343/343/343 344/344/344 344/344/344 
f 344/344/344 345/345/345 344/344/344 
f 344/344/344 345/345/345 345/345/345 
f 345/345/345 346/346/346 345/345/345 
f 345/345/345 346/346/346 347/347/347 
f 346/346/346 348/348/348 347/347/347 
f 267/267/267 265/265/265 349/349/349 
f 204/204/204 202/202/202 350/350/350 
f 351/351/351 11/11/11 13/13/13 
f 145/145/145 147/147/147 352/352/352 
f 36/36/36 34/34/34 353/353/353 
f 348/348/348 346/346/346 226/226/226 
f 171/171/171 164/164/164 166/166/166 
f 223/223/223 221/221/221 354/354/354 
f 168/168/168 161/161/161 159/159/159 

