mtllib model_0.mtl
o model_0
v 0.4374995231628418 1.8750005960464478 0.7187497615814209
v 0.4374995231628418 0.875 0.7187497615814209
v 0.4374995231628418 1.8750005960464478 -0.03125
v 0.4374995231628418 0.875 -0.03125
v -0.4375 1.8750005960464478 -0.03125
v -0.4375 0.875 -0.03125
v -0.4375 1.8750005960464478 0.7187497615814209
v -0.4375 0.875 0.7187497615814209
v -0.4375 1.8750005960464478 -0.03125
v -0.4375 1.8750005960464478 0.7187497615814209
v 0.4374995231628418 1.8750005960464478 -0.03125
v 0.4374995231628418 1.8750005960464478 0.7187497615814209
v -0.4375 0.875 0.7187497615814209
v -0.4375 0.875 -0.03125
v 0.4374995231628418 0.875 0.7187497615814209
v 0.4374995231628418 0.875 -0.03125
v -0.4375 1.8750005960464478 0.7187497615814209
v -0.4375 0.875 0.7187497615814209
v 0.4374995231628418 1.8750005960464478 0.7187497615814209
v 0.4374995231628418 0.875 0.7187497615814209
v 0.4374995231628418 1.8750005960464478 -0.03125
v 0.4374995231628418 0.875 -0.03125
v -0.4375 1.8750005960464478 -0.03125
v -0.4375 0.875 -0.03125
vn 0.999997615814209 0 0.002184694167226553
vn 0.999997615814209 0 0.002184694167226553
vn 0.999997615814209 0 0.002184694167226553
vn 0.999997615814209 0 0.002184694167226553
vn -0.999997615814209 -2.0682260971124217e-13 0.002184694167226553
vn -0.999997615814209 -2.0682260971124217e-13 0.002184694167226553
vn -0.999997615814209 -2.0682260971124217e-13 0.002184694167226553
vn -0.999997615814209 -2.0682260971124217e-13 0.002184694167226553
vn -1.0341130485562108e-13 0.999997615814209 0.002184694167226553
vn -1.0341130485562108e-13 0.999997615814209 0.002184694167226553
vn -1.0341130485562108e-13 0.999997615814209 0.002184694167226553
vn -1.0341130485562108e-13 0.999997615814209 0.002184694167226553
vn 3.097898456858039e-13 -0.999997615814209 0.002184694167226553
vn 3.097898456858039e-13 -0.999997615814209 0.002184694167226553
vn 3.097898456858039e-13 -0.999997615814209 0.002184694167226553
vn 3.097898456858039e-13 -0.999997615814209 0.002184694167226553
vn 0 0 1
vn 0 0 1
vn 0 0 1
vn 0 0 1
vn -2.0682311115474694e-13 0 -1
vn -2.0682311115474694e-13 0 -1
vn -2.0682311115474694e-13 0 -1
vn -2.0682311115474694e-13 0 -1
vt 0.00012206999963382259 0.5624057650566101
vt 0.00012206999963382259 0.4376220107078552
vt 0.09354115277528763 0.5624057650566101
vt 0.09354115277528763 0.4376220107078552
vt 0.2032242715358734 0.5624057650566101
vt 0.2032242715358734 0.4376220107078552
vt 0.29684171080589294 0.5624057650566101
vt 0.29684171080589294 0.4376220107078552
vt 0.2030259370803833 0.5626192092895508
vt 0.2030259370803833 0.6561269760131836
vt 0.09393783658742905 0.5626192092895508
vt 0.09393783658742905 0.6561269760131836
vt 0.31231236457824707 0.6561269760131836
vt 0.31231236457824707 0.5626192092895508
vt 0.2032242715358734 0.6561269760131836
vt 0.2032242715358734 0.5626192092895508
vt 0.29704004526138306 0.5624057650566101
vt 0.29704004526138306 0.4376220107078552
vt 0.4061281383037567 0.5624057650566101
vt 0.4061281383037567 0.4376220107078552
vt 0.09393783658742905 0.5624057650566101
vt 0.09393783658742905 0.4376220107078552
vt 0.2030259370803833 0.5624057650566101
vt 0.2030259370803833 0.4376220107078552
s on 
f 1/1/1 2/2/2 3/3/3 
f 2/2/2 4/4/4 3/3/3 
f 3/3/3 4/4/4 4/4/4 
f 4/4/4 5/5/5 4/4/4 
f 4/4/4 5/5/5 5/5/5 
f 5/5/5 6/6/6 5/5/5 
f 5/5/5 6/6/6 7/7/7 
f 6/6/6 8/8/8 7/7/7 
f 7/7/7 8/8/8 8/8/8 
f 8/8/8 9/9/9 8/8/8 
f 8/8/8 9/9/9 9/9/9 
f 9/9/9 10/10/10 9/9/9 
f 9/9/9 10/10/10 11/11/11 
f 10/10/10 12/12/12 11/11/11 
f 11/11/11 12/12/12 12/12/12 
f 12/12/12 13/13/13 12/12/12 
f 12/12/12 13/13/13 13/13/13 
f 13/13/13 14/14/14 13/13/13 
f 13/13/13 14/14/14 15/15/15 
f 14/14/14 16/16/16 15/15/15 
f 15/15/15 16/16/16 16/16/16 
f 16/16/16 17/17/17 16/16/16 
f 16/16/16 17/17/17 17/17/17 
f 17/17/17 18/18/18 17/17/17 
f 17/17/17 18/18/18 19/19/19 
f 18/18/18 20/20/20 19/19/19 
f 19/19/19 20/20/20 20/20/20 
f 20/20/20 21/21/21 20/20/20 
f 20/20/20 21/21/21 21/21/21 
f 21/21/21 22/22/22 21/21/21 
f 21/21/21 22/22/22 23/23/23 
f 22/22/22 24/24/24 23/23/23 
