mtllib model_2.mtl
o model_2
v -3.5750045776367188 0.822832465171814 0.42634308338165283 
v -3.5750045776367188 1.0228813886642456 0.42634308338165283 
v -3.5750045776367188 0.822832465171814 -0.6732190847396851 
v -3.5750045776367188 1.0228813886642456 -0.6732190847396851 
v -3.4749557971954346 0.5229789018630981 0.2253657728433609 
v -3.4749557971954346 0.5229789018630981 0.32668495178222656 
v -3.4749557971954346 0.6227835416793823 0.2253657728433609 
v -3.4749557971954346 0.7230278253555298 0.5260013341903687 
v -3.4749557971954346 0.6227835416793823 0.02604939043521881 
v -3.4749557971954346 0.7230278253555298 0.42634308338165283 
v -3.4749557971954346 0.7230278253555298 0.2253657728433609 
v -3.4749557971954346 0.822832465171814 0.42634308338165283 
v -3.4749557971954346 0.822832465171814 0.2253657728433609 
v -3.4749557971954346 0.7230278253555298 0.12570752203464508 
v -3.4749557971954346 0.7230278253555298 0.02604939043521881 
v -3.2750532627105713 0.5229789018630981 0.2253657728433609 
v -3.2750532627105713 0.6227835416793823 0.2253657728433609 
v -3.2750532627105713 0.5229789018630981 0.32668495178222656 
v -3.2750532627105713 0.7230278253555298 0.5260013341903687 
v -3.2750532627105713 0.3229300081729889 0.5260013341903687 
v -3.2750532627105713 0.6227835416793823 0.02604939043521881 
v -3.2750532627105713 0.7230278253555298 0.42634308338165283 
v -3.2750532627105713 0.7230278253555298 0.2253657728433609 
v -3.2750532627105713 0.7230278253555298 0.12570752203464508 
v -3.2750532627105713 0.822832465171814 0.42634308338165283 
v -3.2750532627105713 0.822832465171814 0.2253657728433609 
v -3.4749557971954346 0.7230278253555298 0.5260013341903687 
v -3.2750532627105713 0.7230278253555298 0.5260013341903687 
v -3.4749557971954346 0.7230278253555298 0.42634308338165283 
v -3.2750532627105713 0.7230278253555298 0.42634308338165283 
v -3.4749557971954346 1.123125672340393 0.42634308338165283 
v -3.2750532627105713 1.123125672340393 0.42634308338165283 
v -3.4749557971954346 1.123125672340393 -0.5735608339309692 
v -3.2750532627105713 1.123125672340393 -0.5735608339309692 
v -3.4749557971954346 0.7230278253555298 0.42634308338165283 
v -3.2750532627105713 0.7230278253555298 0.42634308338165283 
v -3.4749557971954346 0.822832465171814 0.42634308338165283 
v -3.2750532627105713 0.822832465171814 0.42634308338165283 
v -3.2750532627105713 0.9230767488479614 -0.6732190847396851 
v -3.4749557971954346 0.9230767488479614 -0.6732190847396851 
v -3.2750532627105713 0.9230767488479614 -0.5735608339309692 
v -3.4749557971954346 0.9230767488479614 -0.5735608339309692 
v -3.4749557971954346 1.123125672340393 0.5260013341903687 
v -3.4749557971954346 1.123125672340393 0.42634308338165283 
v -3.2750532627105713 1.123125672340393 0.5260013341903687 
v -3.2750532627105713 1.123125672340393 0.42634308338165283 
v -3.2750532627105713 1.0228813886642456 0.42634308338165283 
v -3.175004482269287 1.0228813886642456 0.42634308338165283 
v -3.2750532627105713 1.0228813886642456 -0.5735608339309692 
v -3.2750532627105713 1.0228813886642456 -0.6732190847396851 
v -3.4749557971954346 1.0228813886642456 0.42634308338165283 
v -3.2750532627105713 1.0228813886642456 0.42634308338165283 
v -3.4749557971954346 1.123125672340393 0.42634308338165283 
v -3.2750532627105713 1.123125672340393 0.42634308338165283 
v -3.2750532627105713 0.822832465171814 -0.5735608339309692 
v -3.2750532627105713 0.822832465171814 -0.07360886037349701 
v -3.4749557971954346 0.822832465171814 -0.5735608339309692 
v -3.4749557971954346 0.822832465171814 -0.07360886037349701 
v -3.4749557971954346 0.822832465171814 -0.07360886037349701 
v -3.4749557971954346 0.7230278253555298 -0.07360886037349701 
v -3.4749557971954346 0.822832465171814 0.02604939043521881 
v -3.2750532627105713 0.822832465171814 0.02604939043521881 
v -3.2750532627105713 0.822832465171814 0.12570752203464508 
v -3.4749557971954346 0.822832465171814 0.02604939043521881 
v -3.4749557971954346 0.822832465171814 0.12570752203464508 
v -3.4749557971954346 1.2229303121566772 0.5260013341903687 
v -3.2750532627105713 1.2229303121566772 0.5260013341903687 
v -3.4749557971954346 1.2229303121566772 0.42634308338165283 
v -3.2750532627105713 1.2229303121566772 0.42634308338165283 
v -3.175004482269287 1.0228813886642456 0.42634308338165283 
v -3.2750532627105713 1.0228813886642456 0.42634308338165283 
v -3.175004482269287 0.822832465171814 0.42634308338165283 
v -3.2750532627105713 0.822832465171814 0.42634308338165283 
v -3.2750532627105713 0.822832465171814 0.42634308338165283 
v -3.2750532627105713 0.822832465171814 0.2253657728433609 
v -3.175004482269287 0.822832465171814 0.42634308338165283 
v -3.2750532627105713 0.822832465171814 0.12570752203464508 
v -3.2750532627105713 0.822832465171814 0.02604939043521881 
v -3.2750532627105713 0.822832465171814 -0.07360886037349701 
v -3.2750532627105713 0.822832465171814 -0.5735608339309692 
v -3.175004482269287 0.822832465171814 -0.6732190847396851 
v -3.5750045776367188 0.822832465171814 -0.6732190847396851 
v -3.4749557971954346 0.822832465171814 -0.5735608339309692 
v -3.5750045776367188 0.822832465171814 0.42634308338165283 
v -3.4749557971954346 0.822832465171814 -0.07360886037349701 
v -3.4749557971954346 0.822832465171814 0.02604939043521881 
v -3.4749557971954346 0.822832465171814 0.12570752203464508 
v -3.4749557971954346 0.822832465171814 0.2253657728433609 
v -3.4749557971954346 0.822832465171814 0.42634308338165283 
v -3.4749557971954346 0.822832465171814 0.5260013341903687 
v -3.4749557971954346 0.822832465171814 0.42634308338165283 
v -3.2750532627105713 0.822832465171814 0.5260013341903687 
v -3.2750532627105713 0.822832465171814 0.42634308338165283 
v -3.4749557971954346 0.7230278253555298 0.02604939043521881 
v -3.4749557971954346 0.7230278253555298 -0.07360886037349701 
v -3.2750532627105713 0.7230278253555298 0.02604939043521881 
v -3.2750532627105713 0.7230278253555298 -0.07360886037349701 
v -3.4749557971954346 0.3229300081729889 0.5260013341903687 
v -3.4749557971954346 0.3229300081729889 0.32668495178222656 
v -3.2750532627105713 0.3229300081729889 0.5260013341903687 
v -3.2750532627105713 0.3229300081729889 0.32668495178222656 
v -3.4749557971954346 0.3229300081729889 0.5260013341903687 
v -3.4749557971954346 0.3229300081729889 0.32668495178222656 
v -3.2750532627105713 0.822832465171814 -0.07360886037349701 
v -3.2750532627105713 0.7230278253555298 -0.07360886037349701 
v -3.4749557971954346 0.822832465171814 -0.07360886037349701 
v -3.4749557971954346 0.7230278253555298 -0.07360886037349701 
v -3.2750532627105713 0.7230278253555298 0.02604939043521881 
v -3.2750532627105713 0.6227835416793823 0.02604939043521881 
v -3.4749557971954346 0.7230278253555298 0.02604939043521881 
v -3.4749557971954346 0.6227835416793823 0.02604939043521881 
v -3.2750532627105713 1.2229303121566772 -0.6732190847396851 
v -3.2750532627105713 1.0228813886642456 -0.6732190847396851 
v -3.4749557971954346 1.2229303121566772 -0.6732190847396851 
v -3.4749557971954346 1.0228813886642456 -0.6732190847396851 
v -3.4749557971954346 1.0228813886642456 0.5260013341903687 
v -3.2750532627105713 1.0228813886642456 0.5260013341903687 
v -3.4749557971954346 1.0228813886642456 0.42634308338165283 
v -3.2750532627105713 1.0228813886642456 0.42634308338165283 
v -3.2750532627105713 0.5229789018630981 0.32668495178222656 
v -3.2750532627105713 0.3229300081729889 0.32668495178222656 
v -3.4749557971954346 0.5229789018630981 0.32668495178222656 
v -3.4749557971954346 0.3229300081729889 0.32668495178222656 
v -3.4749557971954346 0.7230278253555298 0.12570752203464508 
v -3.2750532627105713 0.7230278253555298 0.12570752203464508 
v -3.4749557971954346 0.7230278253555298 0.02604939043521881 
v -3.2750532627105713 0.7230278253555298 0.02604939043521881 
v -3.2750532627105713 1.2229303121566772 -0.6732190847396851 
v -3.4749557971954346 1.2229303121566772 -0.6732190847396851 
v -3.2750532627105713 1.2229303121566772 -0.5735608339309692 
v -3.4749557971954346 1.2229303121566772 -0.5735608339309692 
v -3.2750532627105713 0.822832465171814 0.02604939043521881 
v -3.4749557971954346 0.822832465171814 0.02604939043521881 
v -3.2750532627105713 0.7230278253555298 0.02604939043521881 
v -3.4749557971954346 0.7230278253555298 0.02604939043521881 
v -3.4749557971954346 1.123125672340393 -0.5735608339309692 
v -3.2750532627105713 1.123125672340393 -0.5735608339309692 
v -3.4749557971954346 1.2229303121566772 -0.5735608339309692 
v -3.2750532627105713 1.2229303121566772 -0.5735608339309692 
v -3.2750532627105713 0.6227835416793823 0.02604939043521881 
v -3.2750532627105713 0.6227835416793823 0.2253657728433609 
v -3.4749557971954346 0.6227835416793823 0.02604939043521881 
v -3.4749557971954346 0.6227835416793823 0.2253657728433609 
v -3.4749557971954346 0.5229789018630981 0.32668495178222656 
v -3.4749557971954346 0.5229789018630981 0.2253657728433609 
v -3.2750532627105713 0.5229789018630981 0.32668495178222656 
v -3.2750532627105713 0.5229789018630981 0.2253657728433609 
v -3.5750045776367188 0.822832465171814 0.42634308338165283 
v -3.4749557971954346 0.822832465171814 0.42634308338165283 
v -3.5750045776367188 1.0228813886642456 0.42634308338165283 
v -3.4749557971954346 1.0228813886642456 0.42634308338165283 
v -3.2750532627105713 1.2229303121566772 0.5260013341903687 
v -3.4749557971954346 1.2229303121566772 0.5260013341903687 
v -3.2750532627105713 1.123125672340393 0.5260013341903687 
v -3.4749557971954346 1.123125672340393 0.5260013341903687 
v -3.2750532627105713 1.0228813886642456 0.5260013341903687 
v -3.4749557971954346 1.0228813886642456 0.5260013341903687 
v -3.2750532627105713 0.822832465171814 0.5260013341903687 
v -3.4749557971954346 0.822832465171814 0.5260013341903687 
v -3.2750532627105713 0.7230278253555298 0.5260013341903687 
v -3.4749557971954346 0.7230278253555298 0.5260013341903687 
v -3.2750532627105713 0.3229300081729889 0.5260013341903687 
v -3.4749557971954346 0.3229300081729889 0.5260013341903687 
v -3.175004482269287 1.0228813886642456 -0.6732190847396851 
v -3.175004482269287 1.0228813886642456 0.42634308338165283 
v -3.175004482269287 0.822832465171814 -0.6732190847396851 
v -3.175004482269287 0.822832465171814 0.42634308338165283 
v -3.2750532627105713 1.2229303121566772 -0.6732190847396851 
v -3.2750532627105713 1.2229303121566772 -0.5735608339309692 
v -3.2750532627105713 1.0228813886642456 -0.6732190847396851 
v -3.2750532627105713 1.123125672340393 -0.5735608339309692 
v -3.2750532627105713 1.0228813886642456 -0.5735608339309692 
v -3.2750532627105713 1.2229303121566772 0.42634308338165283 
v -3.2750532627105713 1.2229303121566772 0.5260013341903687 
v -3.2750532627105713 1.123125672340393 0.42634308338165283 
v -3.2750532627105713 1.123125672340393 0.5260013341903687 
v -3.2750532627105713 0.822832465171814 0.5260013341903687 
v -3.2750532627105713 0.822832465171814 0.42634308338165283 
v -3.2750532627105713 1.0228813886642456 0.5260013341903687 
v -3.2750532627105713 1.0228813886642456 0.42634308338165283 
v -3.2750532627105713 0.822832465171814 -0.07360886037349701 
v -3.2750532627105713 0.822832465171814 0.02604939043521881 
v -3.2750532627105713 0.7230278253555298 -0.07360886037349701 
v -3.2750532627105713 0.7230278253555298 0.02604939043521881 
v -3.2750532627105713 1.0228813886642456 -0.5735608339309692 
v -3.2750532627105713 0.9230767488479614 -0.5735608339309692 
v -3.4749557971954346 1.0228813886642456 -0.5735608339309692 
v -3.4749557971954346 0.9230767488479614 -0.5735608339309692 
v -3.4749557971954346 1.0228813886642456 0.42634308338165283 
v -3.4749557971954346 1.0228813886642456 -0.5735608339309692 
v -3.5750045776367188 1.0228813886642456 0.42634308338165283 
v -3.5750045776367188 1.0228813886642456 -0.6732190847396851 
v -3.2750532627105713 1.2229303121566772 0.42634308338165283 
v -3.2750532627105713 1.123125672340393 0.42634308338165283 
v -3.4749557971954346 1.2229303121566772 0.42634308338165283 
v -3.4749557971954346 1.123125672340393 0.42634308338165283 
v -3.175004482269287 1.0228813886642456 -0.6732190847396851 
v -3.175004482269287 0.822832465171814 -0.6732190847396851 
v -3.2750532627105713 0.9230767488479614 -0.6732190847396851 
v -3.5750045776367188 0.822832465171814 -0.6732190847396851 
v -3.4749557971954346 0.9230767488479614 -0.6732190847396851 
v -3.5750045776367188 1.0228813886642456 -0.6732190847396851 
v -3.2750532627105713 1.123125672340393 -0.5735608339309692 
v -3.2750532627105713 1.123125672340393 0.42634308338165283 
v -3.2750532627105713 1.0228813886642456 -0.5735608339309692 
v -3.4749557971954346 0.9230767488479614 -0.5735608339309692 
v -3.4749557971954346 0.9230767488479614 -0.6732190847396851 
v -3.4749557971954346 1.0228813886642456 -0.5735608339309692 
v -3.4749557971954346 1.0228813886642456 -0.6732190847396851 
v -3.2750532627105713 0.9230767488479614 -0.5735608339309692 
v -3.2750532627105713 1.0228813886642456 -0.5735608339309692 
v -3.2750532627105713 0.9230767488479614 -0.6732190847396851 
v -3.2750532627105713 1.0228813886642456 -0.6732190847396851 
v -3.4749557971954346 0.7230278253555298 0.2253657728433609 
v -3.4749557971954346 0.822832465171814 0.2253657728433609 
v -3.4749557971954346 0.7230278253555298 0.12570752203464508 
v -3.4749557971954346 0.822832465171814 0.12570752203464508 
v -3.2750532627105713 0.822832465171814 0.12570752203464508 
v -3.2750532627105713 0.7230278253555298 0.12570752203464508 
v -3.4749557971954346 0.822832465171814 0.12570752203464508 
v -3.4749557971954346 0.7230278253555298 0.12570752203464508 
v -3.4749557971954346 1.0228813886642456 0.42634308338165283 
v -3.4749557971954346 1.123125672340393 0.42634308338165283 
v -3.4749557971954346 1.0228813886642456 -0.5735608339309692 
v -3.4749557971954346 1.123125672340393 -0.5735608339309692 
v -3.4749557971954346 1.2229303121566772 0.42634308338165283 
v -3.4749557971954346 1.123125672340393 0.42634308338165283 
v -3.4749557971954346 1.2229303121566772 0.5260013341903687 
v -3.4749557971954346 1.123125672340393 0.5260013341903687 
v -3.4749557971954346 0.5229789018630981 0.2253657728433609 
v -3.4749557971954346 0.6227835416793823 0.2253657728433609 
v -3.2750532627105713 0.5229789018630981 0.2253657728433609 
v -3.2750532627105713 0.6227835416793823 0.2253657728433609 
v -3.2750532627105713 1.0228813886642456 -0.6732190847396851 
v -3.2750532627105713 1.0228813886642456 -0.5735608339309692 
v -3.4749557971954346 1.0228813886642456 -0.6732190847396851 
v -3.4749557971954346 1.0228813886642456 -0.5735608339309692 
v -3.4749557971954346 1.2229303121566772 -0.6732190847396851 
v -3.4749557971954346 1.0228813886642456 -0.6732190847396851 
v -3.4749557971954346 1.2229303121566772 -0.5735608339309692 
v -3.4749557971954346 1.123125672340393 -0.5735608339309692 
v -3.2750532627105713 0.7230278253555298 0.2253657728433609 
v -3.2750532627105713 0.7230278253555298 0.12570752203464508 
v -3.2750532627105713 0.822832465171814 0.2253657728433609 
v -3.2750532627105713 0.822832465171814 0.12570752203464508 
v -3.4749557971954346 0.822832465171814 0.5260013341903687 
v -3.4749557971954346 1.0228813886642456 0.5260013341903687 
v -3.4749557971954346 0.822832465171814 0.42634308338165283 
v -3.4749557971954346 1.0228813886642456 -0.5735608339309692 
v -3.2750532627105713 0.3229300081729889 0.32668495178222656 
v -3.4749557971954346 1.0228813886642456 -0.6732190847396851 
v -3.175004482269287 1.0228813886642456 -0.6732190847396851 
vn -0.999997615814209 -2.0682260971124217e-13 0.002184694167226553 
vn -0.999997615814209 -2.0682260971124217e-13 0.002184694167226553 
vn -0.999997615814209 -2.0682260971124217e-13 0.002184694167226553 
vn -0.999997615814209 -2.0682260971124217e-13 0.002184694167226553 
vn -0.999997615814209 -2.0682260971124217e-13 0.002184694167226553 
vn -0.999997615814209 -2.0682260971124217e-13 0.002184694167226553 
vn -0.999997615814209 -2.0682260971124217e-13 0.002184694167226553 
vn -0.999997615814209 -2.0682260971124217e-13 0.002184694167226553 
vn -0.999997615814209 -2.0682260971124217e-13 0.002184694167226553 
vn -0.999997615814209 -2.0682260971124217e-13 0.002184694167226553 
vn -0.999997615814209 -2.0682260971124217e-13 0.002184694167226553 
vn -0.999997615814209 -2.0682260971124217e-13 0.002184694167226553 
vn -0.999997615814209 -2.0682260971124217e-13 0.002184694167226553 
vn -0.999997615814209 -2.0682260971124217e-13 0.002184694167226553 
vn -0.999997615814209 -2.0682260971124217e-13 0.002184694167226553 
vn 0.999997615814209 0 0.002184694167226553 
vn 0.999997615814209 0 0.002184694167226553 
vn 0.999997615814209 0 0.002184694167226553 
vn 0.999997615814209 0 0.002184694167226553 
vn 0.999997615814209 0 0.002184694167226553 
vn 0.999997615814209 0 0.002184694167226553 
vn 0.999997615814209 0 0.002184694167226553 
vn 0.999997615814209 0 0.002184694167226553 
vn 0.999997615814209 0 0.002184694167226553 
vn 0.999997615814209 0 0.002184694167226553 
vn 0.999997615814209 0 0.002184694167226553 
vn -1.0341130485562108e-13 0.999997615814209 0.002184694167226553 
vn -1.0341130485562108e-13 0.999997615814209 0.002184694167226553 
vn -1.0341130485562108e-13 0.999997615814209 0.002184694167226553 
vn -1.0341130485562108e-13 0.999997615814209 0.002184694167226553 
vn -1.0341130485562108e-13 0.999997615814209 0.002184694167226553 
vn -1.0341130485562108e-13 0.999997615814209 0.002184694167226553 
vn -1.0341130485562108e-13 0.999997615814209 0.002184694167226553 
vn -1.0341130485562108e-13 0.999997615814209 0.002184694167226553 
vn 0 0 1 
vn 0 0 1 
vn 0 0 1 
vn 0 0 1 
vn -1.0341130485562108e-13 0.999997615814209 0.002184694167226553 
vn -1.0341130485562108e-13 0.999997615814209 0.002184694167226553 
vn -1.0341130485562108e-13 0.999997615814209 0.002184694167226553 
vn -1.0341130485562108e-13 0.999997615814209 0.002184694167226553 
vn 3.097898456858039e-13 -0.999997615814209 0.002184694167226553 
vn 3.097898456858039e-13 -0.999997615814209 0.002184694167226553 
vn 3.097898456858039e-13 -0.999997615814209 0.002184694167226553 
vn 3.097898456858039e-13 -0.999997615814209 0.002184694167226553 
vn -1.0341130485562108e-13 0.999997615814209 0.002184694167226553 
vn -1.0341130485562108e-13 0.999997615814209 0.002184694167226553 
vn -1.0341130485562108e-13 0.999997615814209 0.002184694167226553 
vn -1.0341130485562108e-13 0.999997615814209 0.002184694167226553 
vn 0 0 1 
vn 0 0 1 
vn 0 0 1 
vn 0 0 1 
vn 3.097898456858039e-13 -0.999997615814209 0.002184694167226553 
vn 3.097898456858039e-13 -0.999997615814209 0.002184694167226553 
vn 3.097898456858039e-13 -0.999997615814209 0.002184694167226553 
vn 3.097898456858039e-13 -0.999997615814209 0.002184694167226553 
vn -0.999997615814209 -2.0682260971124217e-13 0.002184694167226553 
vn -0.999997615814209 -2.0682260971124217e-13 0.002184694167226553 
vn -0.999997615814209 -2.0682260971124217e-13 0.002184694167226553 
vn 3.097898456858039e-13 -0.999997615814209 0.002184694167226553 
vn 3.097898456858039e-13 -0.999997615814209 0.002184694167226553 
vn 3.097898456858039e-13 -0.999997615814209 0.002184694167226553 
vn 3.097898456858039e-13 -0.999997615814209 0.002184694167226553 
vn -1.0341130485562108e-13 0.999997615814209 0.002184694167226553 
vn -1.0341130485562108e-13 0.999997615814209 0.002184694167226553 
vn -1.0341130485562108e-13 0.999997615814209 0.002184694167226553 
vn -1.0341130485562108e-13 0.999997615814209 0.002184694167226553 
vn 0 0 1 
vn 0 0 1 
vn 0 0 1 
vn 0 0 1 
vn 3.097898456858039e-13 -0.999997615814209 0.002184694167226553 
vn 3.097898456858039e-13 -0.999997615814209 0.002184694167226553 
vn 3.097898456858039e-13 -0.999997615814209 0.002184694167226553 
vn 3.097898456858039e-13 -0.999997615814209 0.002184694167226553 
vn 3.097898456858039e-13 -0.999997615814209 0.002184694167226553 
vn 3.097898456858039e-13 -0.999997615814209 0.002184694167226553 
vn 3.097898456858039e-13 -0.999997615814209 0.002184694167226553 
vn 3.097898456858039e-13 -0.999997615814209 0.002184694167226553 
vn 3.097898456858039e-13 -0.999997615814209 0.002184694167226553 
vn 3.097898456858039e-13 -0.999997615814209 0.002184694167226553 
vn 3.097898456858039e-13 -0.999997615814209 0.002184694167226553 
vn 3.097898456858039e-13 -0.999997615814209 0.002184694167226553 
vn 3.097898456858039e-13 -0.999997615814209 0.002184694167226553 
vn 3.097898456858039e-13 -0.999997615814209 0.002184694167226553 
vn 3.097898456858039e-13 -0.999997615814209 0.002184694167226553 
vn 3.097898456858039e-13 -0.999997615814209 0.002184694167226553 
vn 3.097898456858039e-13 -0.999997615814209 0.002184694167226553 
vn 3.097898456858039e-13 -0.999997615814209 0.002184694167226553 
vn 3.097898456858039e-13 -0.999997615814209 0.002184694167226553 
vn 3.097898456858039e-13 -0.999997615814209 0.002184694167226553 
vn 3.097898456858039e-13 -0.999997615814209 0.002184694167226553 
vn 3.097898456858039e-13 -0.999997615814209 0.002184694167226553 
vn 3.097898456858039e-13 -0.999997615814209 0.002184694167226553 
vn 3.097898456858039e-13 -0.999997615814209 0.002184694167226553 
vn 3.097898456858039e-13 -0.999997615814209 0.002184694167226553 
vn 3.097898456858039e-13 -0.999997615814209 0.002184694167226553 
vn 3.097898456858039e-13 -0.999997615814209 0.002184694167226553 
vn 3.097898456858039e-13 -0.999997615814209 0.002184694167226553 
vn -0.999997615814209 -2.0682260971124217e-13 0.002184694167226553 
vn -0.999997615814209 -2.0682260971124217e-13 0.002184694167226553 
vn -2.0682311115474694e-13 0 -1 
vn -2.0682311115474694e-13 0 -1 
vn -2.0682311115474694e-13 0 -1 
vn -2.0682311115474694e-13 0 -1 
vn -2.0682311115474694e-13 0 -1 
vn -2.0682311115474694e-13 0 -1 
vn -2.0682311115474694e-13 0 -1 
vn -2.0682311115474694e-13 0 -1 
vn -2.0682311115474694e-13 0 -1 
vn -2.0682311115474694e-13 0 -1 
vn -2.0682311115474694e-13 0 -1 
vn -2.0682311115474694e-13 0 -1 
vn -1.0341130485562108e-13 0.999997615814209 0.002184694167226553 
vn -1.0341130485562108e-13 0.999997615814209 0.002184694167226553 
vn -1.0341130485562108e-13 0.999997615814209 0.002184694167226553 
vn -1.0341130485562108e-13 0.999997615814209 0.002184694167226553 
vn -2.0682311115474694e-13 0 -1 
vn -2.0682311115474694e-13 0 -1 
vn -2.0682311115474694e-13 0 -1 
vn -2.0682311115474694e-13 0 -1 
vn -1.0341130485562108e-13 0.999997615814209 0.002184694167226553 
vn -1.0341130485562108e-13 0.999997615814209 0.002184694167226553 
vn -1.0341130485562108e-13 0.999997615814209 0.002184694167226553 
vn -1.0341130485562108e-13 0.999997615814209 0.002184694167226553 
vn -1.0341130485562108e-13 0.999997615814209 0.002184694167226553 
vn -1.0341130485562108e-13 0.999997615814209 0.002184694167226553 
vn -1.0341130485562108e-13 0.999997615814209 0.002184694167226553 
vn -1.0341130485562108e-13 0.999997615814209 0.002184694167226553 
vn 0 0 1 
vn 0 0 1 
vn 0 0 1 
vn 0 0 1 
vn 0 0 1 
vn 0 0 1 
vn 0 0 1 
vn 0 0 1 
vn 3.097898456858039e-13 -0.999997615814209 0.002184694167226553 
vn 3.097898456858039e-13 -0.999997615814209 0.002184694167226553 
vn 3.097898456858039e-13 -0.999997615814209 0.002184694167226553 
vn 3.097898456858039e-13 -0.999997615814209 0.002184694167226553 
vn 3.097898456858039e-13 -0.999997615814209 0.002184694167226553 
vn 3.097898456858039e-13 -0.999997615814209 0.002184694167226553 
vn 3.097898456858039e-13 -0.999997615814209 0.002184694167226553 
vn 3.097898456858039e-13 -0.999997615814209 0.002184694167226553 
vn 0 0 1 
vn 0 0 1 
vn 0 0 1 
vn 0 0 1 
vn 0 0 1 
vn 0 0 1 
vn 0 0 1 
vn 0 0 1 
vn 0 0 1 
vn 0 0 1 
vn 0 0 1 
vn 0 0 1 
vn 0 0 1 
vn 0 0 1 
vn 0 0 1 
vn 0 0 1 
vn 0.999997615814209 0 0.002184694167226553 
vn 0.999997615814209 0 0.002184694167226553 
vn 0.999997615814209 0 0.002184694167226553 
vn 0.999997615814209 0 0.002184694167226553 
vn 0.999997615814209 0 0.002184694167226553 
vn 0.999997615814209 0 0.002184694167226553 
vn 0.999997615814209 0 0.002184694167226553 
vn 0.999997615814209 0 0.002184694167226553 
vn 0.999997615814209 0 0.002184694167226553 
vn 0.999997615814209 0 0.002184694167226553 
vn 0.999997615814209 0 0.002184694167226553 
vn 0.999997615814209 0 0.002184694167226553 
vn 0.999997615814209 0 0.002184694167226553 
vn 0.999997615814209 0 0.002184694167226553 
vn 0.999997615814209 0 0.002184694167226553 
vn 0.999997615814209 0 0.002184694167226553 
vn 0.999997615814209 0 0.002184694167226553 
vn 0.999997615814209 0 0.002184694167226553 
vn 0.999997615814209 0 0.002184694167226553 
vn 0.999997615814209 0 0.002184694167226553 
vn 0.999997615814209 0 0.002184694167226553 
vn -2.0682311115474694e-13 0 -1 
vn -2.0682311115474694e-13 0 -1 
vn -2.0682311115474694e-13 0 -1 
vn -2.0682311115474694e-13 0 -1 
vn -1.0341130485562108e-13 0.999997615814209 0.002184694167226553 
vn -1.0341130485562108e-13 0.999997615814209 0.002184694167226553 
vn -1.0341130485562108e-13 0.999997615814209 0.002184694167226553 
vn -1.0341130485562108e-13 0.999997615814209 0.002184694167226553 
vn -2.0682311115474694e-13 0 -1 
vn -2.0682311115474694e-13 0 -1 
vn -2.0682311115474694e-13 0 -1 
vn -2.0682311115474694e-13 0 -1 
vn -2.0682311115474694e-13 0 -1 
vn -2.0682311115474694e-13 0 -1 
vn -2.0682311115474694e-13 0 -1 
vn -2.0682311115474694e-13 0 -1 
vn -2.0682311115474694e-13 0 -1 
vn -2.0682311115474694e-13 0 -1 
vn 0.999997615814209 0 0.002184694167226553 
vn 0.999997615814209 0 0.002184694167226553 
vn 0.999997615814209 0 0.002184694167226553 
vn 0.999997615814209 0 0.002184694167226553 
vn 0.999997615814209 0 0.002184694167226553 
vn 0.999997615814209 0 0.002184694167226553 
vn 0.999997615814209 0 0.002184694167226553 
vn -0.999997615814209 -2.0682260971124217e-13 0.002184694167226553 
vn -0.999997615814209 -2.0682260971124217e-13 0.002184694167226553 
vn -0.999997615814209 -2.0682260971124217e-13 0.002184694167226553 
vn -0.999997615814209 -2.0682260971124217e-13 0.002184694167226553 
vn -0.999997615814209 -2.0682260971124217e-13 0.002184694167226553 
vn -0.999997615814209 -2.0682260971124217e-13 0.002184694167226553 
vn -0.999997615814209 -2.0682260971124217e-13 0.002184694167226553 
vn -0.999997615814209 -2.0682260971124217e-13 0.002184694167226553 
vn -2.0682311115474694e-13 0 -1 
vn -2.0682311115474694e-13 0 -1 
vn -2.0682311115474694e-13 0 -1 
vn -2.0682311115474694e-13 0 -1 
vn -0.999997615814209 -2.0682260971124217e-13 0.002184694167226553 
vn -0.999997615814209 -2.0682260971124217e-13 0.002184694167226553 
vn -0.999997615814209 -2.0682260971124217e-13 0.002184694167226553 
vn -0.999997615814209 -2.0682260971124217e-13 0.002184694167226553 
vn -0.999997615814209 -2.0682260971124217e-13 0.002184694167226553 
vn -0.999997615814209 -2.0682260971124217e-13 0.002184694167226553 
vn -0.999997615814209 -2.0682260971124217e-13 0.002184694167226553 
vn -0.999997615814209 -2.0682260971124217e-13 0.002184694167226553 
vn -2.0682311115474694e-13 0 -1 
vn -2.0682311115474694e-13 0 -1 
vn -2.0682311115474694e-13 0 -1 
vn -2.0682311115474694e-13 0 -1 
vn 3.097898456858039e-13 -0.999997615814209 0.002184694167226553 
vn 3.097898456858039e-13 -0.999997615814209 0.002184694167226553 
vn 3.097898456858039e-13 -0.999997615814209 0.002184694167226553 
vn 3.097898456858039e-13 -0.999997615814209 0.002184694167226553 
vn -0.999997615814209 -2.0682260971124217e-13 0.002184694167226553 
vn -0.999997615814209 -2.0682260971124217e-13 0.002184694167226553 
vn -0.999997615814209 -2.0682260971124217e-13 0.002184694167226553 
vn -0.999997615814209 -2.0682260971124217e-13 0.002184694167226553 
vn 0.999997615814209 0 0.002184694167226553 
vn 0.999997615814209 0 0.002184694167226553 
vn 0.999997615814209 0 0.002184694167226553 
vn 0.999997615814209 0 0.002184694167226553 
vn -0.999997615814209 -2.0682260971124217e-13 0.002184694167226553 
vn -0.999997615814209 -2.0682260971124217e-13 0.002184694167226553 
vn -0.999997615814209 -2.0682260971124217e-13 0.002184694167226553 
vn -0.999997615814209 -2.0682260971124217e-13 0.002184694167226553 
vn 0.999997615814209 0 0.002184694167226553 
vn -1.0341130485562108e-13 0.999997615814209 0.002184694167226553 
vn -1.0341130485562108e-13 0.999997615814209 0.002184694167226553 
vt 0.9628909826278687 0.5 
vt 0.9628909826278687 0.5 
vt 0.9628909826278687 0.5 
vt 0.9628909826278687 0.5 
vt 0.9823299646377563 0.5 
vt 0.9823299646377563 0.5 
vt 0.9823299646377563 0.5 
vt 0.9823299646377563 0.5 
vt 0.9823299646377563 0.5 
vt 0.9823299646377563 0.5 
vt 0.9823299646377563 0.5 
vt 0.9823299646377563 0.5 
vt 0.9823299646377563 0.5 
vt 0.9823299646377563 0.5 
vt 0.9823299646377563 0.5 
vt 0.9823299646377563 0.5 
vt 0.9823299646377563 0.5 
vt 0.9823299646377563 0.5 
vt 0.9823299646377563 0.5 
vt 0.9823299646377563 0.5 
vt 0.9823299646377563 0.5 
vt 0.9823299646377563 0.5 
vt 0.9823299646377563 0.5 
vt 0.9823299646377563 0.5 
vt 0.9823299646377563 0.5 
vt 0.9823299646377563 0.5 
vt 0.9823299646377563 0.5 
vt 0.9823299646377563 0.5 
vt 0.9823299646377563 0.5 
vt 0.9823299646377563 0.5 
vt 0.9668279886245728 0.5 
vt 0.9668279886245728 0.5 
vt 0.9668279886245728 0.5 
vt 0.9668279886245728 0.5 
vt 0.9823299646377563 0.5 
vt 0.9823299646377563 0.5 
vt 0.9823299646377563 0.5 
vt 0.9823299646377563 0.5 
vt 0.9628909826278687 0.5 
vt 0.9628909826278687 0.5 
vt 0.9628909826278687 0.5 
vt 0.9628909826278687 0.5 
vt 0.9707649946212769 0.5 
vt 0.9707649946212769 0.5 
vt 0.9707649946212769 0.5 
vt 0.9707649946212769 0.5 
vt 0.9628909826278687 0.5 
vt 0.9628909826278687 0.5 
vt 0.9628909826278687 0.5 
vt 0.9628909826278687 0.5 
vt 0.9668279886245728 0.5 
vt 0.9668279886245728 0.5 
vt 0.9668279886245728 0.5 
vt 0.9668279886245728 0.5 
vt 0.9668279886245728 0.5 
vt 0.9668279886245728 0.5 
vt 0.9668279886245728 0.5 
vt 0.9668279886245728 0.5 
vt 0.9823299646377563 0.5 
vt 0.9823299646377563 0.5 
vt 0.9823299646377563 0.5 
vt 0.9668279886245728 0.5 
vt 0.9668279886245728 0.5 
vt 0.9668279886245728 0.5 
vt 0.9668279886245728 0.5 
vt 0.9707649946212769 0.5 
vt 0.9707649946212769 0.5 
vt 0.9707649946212769 0.5 
vt 0.9707649946212769 0.5 
vt 0.9628909826278687 0.5 
vt 0.9628909826278687 0.5 
vt 0.9628909826278687 0.5 
vt 0.9628909826278687 0.5 
vt 0.9628909826278687 0.5 
vt 0.9628909826278687 0.5 
vt 0.9628909826278687 0.5 
vt 0.9628909826278687 0.5 
vt 0.9628909826278687 0.5 
vt 0.9628909826278687 0.5 
vt 0.9628909826278687 0.5 
vt 0.9628909826278687 0.5 
vt 0.9628909826278687 0.5 
vt 0.9628909826278687 0.5 
vt 0.9628909826278687 0.5 
vt 0.9628909826278687 0.5 
vt 0.9628909826278687 0.5 
vt 0.9628909826278687 0.5 
vt 0.9628909826278687 0.5 
vt 0.9628909826278687 0.5 
vt 0.9668279886245728 0.5 
vt 0.9668279886245728 0.5 
vt 0.9668279886245728 0.5 
vt 0.9668279886245728 0.5 
vt 0.9823299646377563 0.5 
vt 0.9823299646377563 0.5 
vt 0.9823299646377563 0.5 
vt 0.9823299646377563 0.5 
vt 0.9823299646377563 0.5 
vt 0.9823299646377563 0.5 
vt 0.9823299646377563 0.5 
vt 0.9823299646377563 0.5 
vt 0.9823299646377563 0.5 
vt 0.9823299646377563 0.5 
vt 0.9823299646377563 0.5 
vt 0.9823299646377563 0.5 
vt 0.9823299646377563 0.5 
vt 0.9823299646377563 0.5 
vt 0.9823299646377563 0.5 
vt 0.9823299646377563 0.5 
vt 0.9823299646377563 0.5 
vt 0.9823299646377563 0.5 
vt 0.9628909826278687 0.5 
vt 0.9628909826278687 0.5 
vt 0.9628909826278687 0.5 
vt 0.9628909826278687 0.5 
vt 0.9668279886245728 0.5 
vt 0.9668279886245728 0.5 
vt 0.9668279886245728 0.5 
vt 0.9668279886245728 0.5 
vt 0.9823299646377563 0.5 
vt 0.9823299646377563 0.5 
vt 0.9823299646377563 0.5 
vt 0.9823299646377563 0.5 
vt 0.9823299646377563 0.5 
vt 0.9823299646377563 0.5 
vt 0.9823299646377563 0.5 
vt 0.9823299646377563 0.5 
vt 0.9628909826278687 0.5 
vt 0.9628909826278687 0.5 
vt 0.9628909826278687 0.5 
vt 0.9628909826278687 0.5 
vt 0.9823299646377563 0.5 
vt 0.9823299646377563 0.5 
vt 0.9823299646377563 0.5 
vt 0.9823299646377563 0.5 
vt 0.9628909826278687 0.5 
vt 0.9628909826278687 0.5 
vt 0.9628909826278687 0.5 
vt 0.9628909826278687 0.5 
vt 0.9823299646377563 0.5 
vt 0.9823299646377563 0.5 
vt 0.9823299646377563 0.5 
vt 0.9823299646377563 0.5 
vt 0.9823299646377563 0.5 
vt 0.9823299646377563 0.5 
vt 0.9823299646377563 0.5 
vt 0.9823299646377563 0.5 
vt 0.9628909826278687 0.5 
vt 0.9628909826278687 0.5 
vt 0.9628909826278687 0.5 
vt 0.9628909826278687 0.5 
vt 0.9707649946212769 0.5 
vt 0.9707649946212769 0.5 
vt 0.9707649946212769 0.5 
vt 0.9707649946212769 0.5 
vt 0.9668279886245728 0.5 
vt 0.9668279886245728 0.5 
vt 0.9668279886245728 0.5 
vt 0.9668279886245728 0.5 
vt 0.9823299646377563 0.5 
vt 0.9823299646377563 0.5 
vt 0.9823299646377563 0.5 
vt 0.9823299646377563 0.5 
vt 0.9628909826278687 0.5 
vt 0.9628909826278687 0.5 
vt 0.9628909826278687 0.5 
vt 0.9628909826278687 0.5 
vt 0.9628909826278687 0.5 
vt 0.9628909826278687 0.5 
vt 0.9628909826278687 0.5 
vt 0.9628909826278687 0.5 
vt 0.9628909826278687 0.5 
vt 0.9707649946212769 0.5 
vt 0.9707649946212769 0.5 
vt 0.9707649946212769 0.5 
vt 0.9707649946212769 0.5 
vt 0.9668279886245728 0.5 
vt 0.9668279886245728 0.5 
vt 0.9668279886245728 0.5 
vt 0.9668279886245728 0.5 
vt 0.9823299646377563 0.5 
vt 0.9823299646377563 0.5 
vt 0.9823299646377563 0.5 
vt 0.9823299646377563 0.5 
vt 0.9941409826278687 0.5 
vt 0.9941409826278687 0.5 
vt 0.9941409826278687 0.5 
vt 0.9941409826278687 0.5 
vt 0.9628909826278687 0.5 
vt 0.9628909826278687 0.5 
vt 0.9628909826278687 0.5 
vt 0.9628909826278687 0.5 
vt 0.9707649946212769 0.5 
vt 0.9707649946212769 0.5 
vt 0.9707649946212769 0.5 
vt 0.9707649946212769 0.5 
vt 0.9628909826278687 0.5 
vt 0.9628909826278687 0.5 
vt 0.9628909826278687 0.5 
vt 0.9628909826278687 0.5 
vt 0.9628909826278687 0.5 
vt 0.9628909826278687 0.5 
vt 0.9668279886245728 0.5 
vt 0.9668279886245728 0.5 
vt 0.9668279886245728 0.5 
vt 0.9628909826278687 0.5 
vt 0.9628909826278687 0.5 
vt 0.9628909826278687 0.5 
vt 0.9628909826278687 0.5 
vt 0.9628909826278687 0.5 
vt 0.9628909826278687 0.5 
vt 0.9628909826278687 0.5 
vt 0.9628909826278687 0.5 
vt 0.9941409826278687 0.5 
vt 0.9941409826278687 0.5 
vt 0.9941409826278687 0.5 
vt 0.9941409826278687 0.5 
vt 0.9941409826278687 0.5 
vt 0.9941409826278687 0.5 
vt 0.9941409826278687 0.5 
vt 0.9941409826278687 0.5 
vt 0.9668279886245728 0.5 
vt 0.9668279886245728 0.5 
vt 0.9668279886245728 0.5 
vt 0.9668279886245728 0.5 
vt 0.9707649946212769 0.5 
vt 0.9707649946212769 0.5 
vt 0.9707649946212769 0.5 
vt 0.9707649946212769 0.5 
vt 0.9823299646377563 0.5 
vt 0.9823299646377563 0.5 
vt 0.9823299646377563 0.5 
vt 0.9823299646377563 0.5 
vt 0.9628909826278687 0.5 
vt 0.9628909826278687 0.5 
vt 0.9628909826278687 0.5 
vt 0.9628909826278687 0.5 
vt 0.9628909826278687 0.5 
vt 0.9628909826278687 0.5 
vt 0.9628909826278687 0.5 
vt 0.9628909826278687 0.5 
vt 0.9941409826278687 0.5 
vt 0.9941409826278687 0.5 
vt 0.9941409826278687 0.5 
vt 0.9941409826278687 0.5 
vt 0.9668279886245728 0.5 
vt 0.9668279886245728 0.5 
vt 0.9668279886245728 0.5 
vt 0.9628909826278687 0.5 
vt 0.9823299646377563 0.5 
vt 0.9628909826278687 0.5 
vt 0.9628909826278687 0.5 
s on 
f 1/1/1 2/2/2 3/3/3 
f 2/2/2 4/4/4 3/3/3 
f 3/3/3 4/4/4 4/4/4 
f 4/4/4 5/5/5 4/4/4 
f 4/4/4 5/5/5 5/5/5 
f 5/5/5 6/6/6 5/5/5 
f 5/5/5 6/6/6 7/7/7 
f 6/6/6 8/8/8 7/7/7 
f 7/7/7 8/8/8 9/9/9 
f 8/8/8 10/10/10 9/9/9 
f 9/9/9 10/10/10 11/11/11 
f 10/10/10 12/12/12 11/11/11 
f 11/11/11 12/12/12 13/13/13 
f 12/12/12 13/13/13 13/13/13 
f 13/13/13 13/13/13 11/11/11 
f 13/13/13 11/11/11 11/11/11 
f 11/11/11 11/11/11 11/11/11 
f 11/11/11 14/14/14 11/11/11 
f 11/11/11 14/14/14 9/9/9 
f 14/14/14 15/15/15 9/9/9 
f 9/9/9 15/15/15 15/15/15 
f 15/15/15 16/16/16 15/15/15 
f 15/15/15 16/16/16 16/16/16 
f 16/16/16 17/17/17 16/16/16 
f 16/16/16 17/17/17 18/18/18 
f 17/17/17 19/19/19 18/18/18 
f 18/18/18 19/19/19 20/20/20 
f 19/19/19 20/20/20 20/20/20 
f 20/20/20 20/20/20 17/17/17 
f 20/20/20 17/17/17 17/17/17 
f 17/17/17 17/17/17 17/17/17 
f 17/17/17 21/21/21 17/17/17 
f 17/17/17 21/21/21 19/19/19 
f 21/21/21 22/22/22 19/19/19 
f 19/19/19 22/22/22 22/22/22 
f 22/22/22 21/21/21 22/22/22 
f 22/22/22 21/21/21 23/23/23 
f 21/21/21 24/24/24 23/23/23 
f 23/23/23 24/24/24 24/24/24 
f 24/24/24 22/22/22 24/24/24 
f 24/24/24 22/22/22 22/22/22 
f 22/22/22 23/23/23 22/22/22 
f 22/22/22 23/23/23 25/25/25 
f 23/23/23 26/26/26 25/25/25 
f 25/25/25 26/26/26 26/26/26 
f 26/26/26 27/27/27 26/26/26 
f 26/26/26 27/27/27 27/27/27 
f 27/27/27 28/28/28 27/27/27 
f 27/27/27 28/28/28 29/29/29 
f 28/28/28 30/30/30 29/29/29 
f 29/29/29 30/30/30 30/30/30 
f 30/30/30 31/31/31 30/30/30 
f 30/30/30 31/31/31 31/31/31 
f 31/31/31 32/32/32 31/31/31 
f 31/31/31 32/32/32 33/33/33 
f 32/32/32 34/34/34 33/33/33 
f 33/33/33 34/34/34 34/34/34 
f 34/34/34 35/35/35 34/34/34 
f 34/34/34 35/35/35 35/35/35 
f 35/35/35 36/36/36 35/35/35 
f 35/35/35 36/36/36 37/37/37 
f 36/36/36 38/38/38 37/37/37 
f 37/37/37 38/38/38 38/38/38 
f 38/38/38 39/39/39 38/38/38 
f 38/38/38 39/39/39 39/39/39 
f 39/39/39 40/40/40 39/39/39 
f 39/39/39 40/40/40 41/41/41 
f 40/40/40 42/42/42 41/41/41 
f 41/41/41 42/42/42 42/42/42 
f 42/42/42 43/43/43 42/42/42 
f 42/42/42 43/43/43 43/43/43 
f 43/43/43 44/44/44 43/43/43 
f 43/43/43 44/44/44 45/45/45 
f 44/44/44 46/46/46 45/45/45 
f 45/45/45 46/46/46 46/46/46 
f 46/46/46 47/47/47 46/46/46 
f 46/46/46 47/47/47 47/47/47 
f 47/47/47 48/48/48 47/47/47 
f 47/47/47 48/48/48 49/49/49 
f 48/48/48 50/50/50 49/49/49 
f 49/49/49 50/50/50 50/50/50 
f 50/50/50 51/51/51 50/50/50 
f 50/50/50 51/51/51 51/51/51 
f 51/51/51 52/52/52 51/51/51 
f 51/51/51 52/52/52 53/53/53 
f 52/52/52 54/54/54 53/53/53 
f 53/53/53 54/54/54 54/54/54 
f 54/54/54 55/55/55 54/54/54 
f 54/54/54 55/55/55 55/55/55 
f 55/55/55 56/56/56 55/55/55 
f 55/55/55 56/56/56 57/57/57 
f 56/56/56 58/58/58 57/57/57 
f 57/57/57 58/58/58 58/58/58 
f 58/58/58 59/59/59 58/58/58 
f 58/58/58 59/59/59 59/59/59 
f 59/59/59 60/60/60 59/59/59 
f 59/59/59 60/60/60 61/61/61 
f 60/60/60 15/15/15 61/61/61 
f 61/61/61 15/15/15 15/15/15 
f 15/15/15 62/62/62 15/15/15 
f 15/15/15 62/62/62 62/62/62 
f 62/62/62 63/63/63 62/62/62 
f 62/62/62 63/63/63 64/64/64 
f 63/63/63 65/65/65 64/64/64 
f 64/64/64 65/65/65 65/65/65 
f 65/65/65 66/66/66 65/65/65 
f 65/65/65 66/66/66 66/66/66 
f 66/66/66 67/67/67 66/66/66 
f 66/66/66 67/67/67 68/68/68 
f 67/67/67 69/69/69 68/68/68 
f 68/68/68 69/69/69 69/69/69 
f 69/69/69 70/70/70 69/69/69 
f 69/69/69 70/70/70 70/70/70 
f 70/70/70 71/71/71 70/70/70 
f 70/70/70 71/71/71 72/72/72 
f 71/71/71 73/73/73 72/72/72 
f 72/72/72 73/73/73 73/73/73 
f 73/73/73 74/74/74 73/73/73 
f 73/73/73 74/74/74 74/74/74 
f 74/74/74 75/75/75 74/74/74 
f 74/74/74 75/75/75 76/76/76 
f 75/75/75 77/77/77 76/76/76 
f 76/76/76 77/77/77 78/78/78 
f 77/77/77 78/78/78 78/78/78 
f 78/78/78 78/78/78 78/78/78 
f 78/78/78 79/79/79 78/78/78 
f 78/78/78 79/79/79 76/76/76 
f 79/79/79 80/80/80 76/76/76 
f 76/76/76 80/80/80 81/81/81 
f 80/80/80 82/82/82 81/81/81 
f 81/81/81 82/82/82 82/82/82 
f 82/82/82 80/80/80 82/82/82 
f 82/82/82 80/80/80 80/80/80 
f 80/80/80 83/83/83 80/80/80 
f 80/80/80 83/83/83 82/82/82 
f 83/83/83 84/84/84 82/82/82 
f 82/82/82 84/84/84 84/84/84 
f 84/84/84 83/83/83 84/84/84 
f 84/84/84 83/83/83 83/83/83 
f 83/83/83 85/85/85 83/83/83 
f 83/83/83 85/85/85 84/84/84 
f 85/85/85 86/86/86 84/84/84 
f 84/84/84 86/86/86 87/87/87 
f 86/86/86 87/87/87 87/87/87 
f 87/87/87 87/87/87 87/87/87 
f 87/87/87 88/88/88 87/87/87 
f 87/87/87 88/88/88 84/84/84 
f 88/88/88 89/89/89 84/84/84 
f 84/84/84 89/89/89 89/89/89 
f 89/89/89 90/90/90 89/89/89 
f 89/89/89 90/90/90 90/90/90 
f 90/90/90 91/91/91 90/90/90 
f 90/90/90 91/91/91 92/92/92 
f 91/91/91 93/93/93 92/92/92 
f 92/92/92 93/93/93 93/93/93 
f 93/93/93 94/94/94 93/93/93 
f 93/93/93 94/94/94 94/94/94 
f 94/94/94 95/95/95 94/94/94 
f 94/94/94 95/95/95 96/96/96 
f 95/95/95 97/97/97 96/96/96 
f 96/96/96 97/97/97 97/97/97 
f 97/97/97 98/98/98 97/97/97 
f 97/97/97 98/98/98 98/98/98 
f 98/98/98 99/99/99 98/98/98 
f 98/98/98 99/99/99 100/100/100 
f 99/99/99 101/101/101 100/100/100 
f 100/100/100 101/101/101 101/101/101 
f 101/101/101 8/8/8 101/101/101 
f 101/101/101 8/8/8 8/8/8 
f 8/8/8 6/6/6 8/8/8 
f 8/8/8 6/6/6 102/102/102 
f 6/6/6 103/103/103 102/102/102 
f 102/102/102 103/103/103 103/103/103 
f 103/103/103 104/104/104 103/103/103 
f 103/103/103 104/104/104 104/104/104 
f 104/104/104 105/105/105 104/104/104 
f 104/104/104 105/105/105 106/106/106 
f 105/105/105 107/107/107 106/106/106 
f 106/106/106 107/107/107 107/107/107 
f 107/107/107 108/108/108 107/107/107 
f 107/107/107 108/108/108 108/108/108 
f 108/108/108 109/109/109 108/108/108 
f 108/108/108 109/109/109 110/110/110 
f 109/109/109 111/111/111 110/110/110 
f 110/110/110 111/111/111 111/111/111 
f 111/111/111 112/112/112 111/111/111 
f 111/111/111 112/112/112 112/112/112 
f 112/112/112 113/113/113 112/112/112 
f 112/112/112 113/113/113 114/114/114 
f 113/113/113 115/115/115 114/114/114 
f 114/114/114 115/115/115 115/115/115 
f 115/115/115 116/116/116 115/115/115 
f 115/115/115 116/116/116 116/116/116 
f 116/116/116 117/117/117 116/116/116 
f 116/116/116 117/117/117 118/118/118 
f 117/117/117 119/119/119 118/118/118 
f 118/118/118 119/119/119 119/119/119 
f 119/119/119 120/120/120 119/119/119 
f 119/119/119 120/120/120 120/120/120 
f 120/120/120 121/121/121 120/120/120 
f 120/120/120 121/121/121 122/122/122 
f 121/121/121 123/123/123 122/122/122 
f 122/122/122 123/123/123 123/123/123 
f 123/123/123 124/124/124 123/123/123 
f 123/123/123 124/124/124 124/124/124 
f 124/124/124 125/125/125 124/124/124 
f 124/124/124 125/125/125 126/126/126 
f 125/125/125 127/127/127 126/126/126 
f 126/126/126 127/127/127 127/127/127 
f 127/127/127 128/128/128 127/127/127 
f 127/127/127 128/128/128 128/128/128 
f 128/128/128 129/129/129 128/128/128 
f 128/128/128 129/129/129 130/130/130 
f 129/129/129 131/131/131 130/130/130 
f 130/130/130 131/131/131 131/131/131 
f 131/131/131 132/132/132 131/131/131 
f 131/131/131 132/132/132 132/132/132 
f 132/132/132 133/133/133 132/132/132 
f 132/132/132 133/133/133 134/134/134 
f 133/133/133 135/135/135 134/134/134 
f 134/134/134 135/135/135 135/135/135 
f 135/135/135 136/136/136 135/135/135 
f 135/135/135 136/136/136 136/136/136 
f 136/136/136 137/137/137 136/136/136 
f 136/136/136 137/137/137 138/138/138 
f 137/137/137 139/139/139 138/138/138 
f 138/138/138 139/139/139 139/139/139 
f 139/139/139 140/140/140 139/139/139 
f 139/139/139 140/140/140 140/140/140 
f 140/140/140 141/141/141 140/140/140 
f 140/140/140 141/141/141 142/142/142 
f 141/141/141 143/143/143 142/142/142 
f 142/142/142 143/143/143 143/143/143 
f 143/143/143 144/144/144 143/143/143 
f 143/143/143 144/144/144 144/144/144 
f 144/144/144 145/145/145 144/144/144 
f 144/144/144 145/145/145 146/146/146 
f 145/145/145 147/147/147 146/146/146 
f 146/146/146 147/147/147 147/147/147 
f 147/147/147 148/148/148 147/147/147 
f 147/147/147 148/148/148 148/148/148 
f 148/148/148 149/149/149 148/148/148 
f 148/148/148 149/149/149 150/150/150 
f 149/149/149 151/151/151 150/150/150 
f 150/150/150 151/151/151 151/151/151 
f 151/151/151 152/152/152 151/151/151 
f 151/151/151 152/152/152 152/152/152 
f 152/152/152 153/153/153 152/152/152 
f 152/152/152 153/153/153 154/154/154 
f 153/153/153 155/155/155 154/154/154 
f 154/154/154 155/155/155 155/155/155 
f 155/155/155 156/156/156 155/155/155 
f 155/155/155 156/156/156 156/156/156 
f 156/156/156 157/157/157 156/156/156 
f 156/156/156 157/157/157 158/158/158 
f 157/157/157 159/159/159 158/158/158 
f 158/158/158 159/159/159 159/159/159 
f 159/159/159 160/160/160 159/159/159 
f 159/159/159 160/160/160 160/160/160 
f 160/160/160 161/161/161 160/160/160 
f 160/160/160 161/161/161 162/162/162 
f 161/161/161 163/163/163 162/162/162 
f 162/162/162 163/163/163 163/163/163 
f 163/163/163 164/164/164 163/163/163 
f 163/163/163 164/164/164 164/164/164 
f 164/164/164 165/165/165 164/164/164 
f 164/164/164 165/165/165 166/166/166 
f 165/165/165 167/167/167 166/166/166 
f 166/166/166 167/167/167 167/167/167 
f 167/167/167 168/168/168 167/167/167 
f 167/167/167 168/168/168 168/168/168 
f 168/168/168 169/169/169 168/168/168 
f 168/168/168 169/169/169 170/170/170 
f 169/169/169 171/171/171 170/170/170 
f 170/170/170 171/171/171 172/172/172 
f 171/171/171 172/172/172 172/172/172 
f 172/172/172 172/172/172 173/173/173 
f 172/172/172 173/173/173 173/173/173 
f 173/173/173 173/173/173 173/173/173 
f 173/173/173 174/174/174 173/173/173 
f 173/173/173 174/174/174 175/175/175 
f 174/174/174 176/176/176 175/175/175 
f 175/175/175 176/176/176 176/176/176 
f 176/176/176 177/177/177 176/176/176 
f 176/176/176 177/177/177 177/177/177 
f 177/177/177 178/178/178 177/177/177 
f 177/177/177 178/178/178 179/179/179 
f 178/178/178 180/180/180 179/179/179 
f 179/179/179 180/180/180 180/180/180 
f 180/180/180 181/181/181 180/180/180 
f 180/180/180 181/181/181 181/181/181 
f 181/181/181 182/182/182 181/181/181 
f 181/181/181 182/182/182 183/183/183 
f 182/182/182 184/184/184 183/183/183 
f 183/183/183 184/184/184 184/184/184 
f 184/184/184 185/185/185 184/184/184 
f 184/184/184 185/185/185 185/185/185 
f 185/185/185 186/186/186 185/185/185 
f 185/185/185 186/186/186 187/187/187 
f 186/186/186 188/188/188 187/187/187 
f 187/187/187 188/188/188 188/188/188 
f 188/188/188 189/189/189 188/188/188 
f 188/188/188 189/189/189 189/189/189 
f 189/189/189 190/190/190 189/189/189 
f 189/189/189 190/190/190 191/191/191 
f 190/190/190 192/192/192 191/191/191 
f 191/191/191 192/192/192 192/192/192 
f 192/192/192 193/193/193 192/192/192 
f 192/192/192 193/193/193 193/193/193 
f 193/193/193 194/194/194 193/193/193 
f 193/193/193 194/194/194 195/195/195 
f 194/194/194 196/196/196 195/195/195 
f 195/195/195 196/196/196 196/196/196 
f 196/196/196 197/197/197 196/196/196 
f 196/196/196 197/197/197 197/197/197 
f 197/197/197 198/198/198 197/197/197 
f 197/197/197 198/198/198 113/113/113 
f 198/198/198 199/199/199 113/113/113 
f 113/113/113 199/199/199 199/199/199 
f 199/199/199 198/198/198 199/199/199 
f 199/199/199 198/198/198 198/198/198 
f 198/198/198 200/200/200 198/198/198 
f 198/198/198 200/200/200 199/199/199 
f 200/200/200 201/201/201 199/199/199 
f 199/199/199 201/201/201 201/201/201 
f 201/201/201 200/200/200 201/201/201 
f 201/201/201 200/200/200 200/200/200 
f 200/200/200 202/202/202 200/200/200 
f 200/200/200 202/202/202 201/201/201 
f 202/202/202 115/115/115 201/201/201 
f 201/201/201 115/115/115 115/115/115 
f 115/115/115 203/203/203 115/115/115 
f 115/115/115 203/203/203 203/203/203 
f 203/203/203 204/204/204 203/203/203 
f 203/203/203 204/204/204 205/205/205 
f 204/204/204 180/180/180 205/205/205 
f 205/205/205 180/180/180 180/180/180 
f 180/180/180 206/206/206 180/180/180 
f 180/180/180 206/206/206 206/206/206 
f 206/206/206 207/207/207 206/206/206 
f 206/206/206 207/207/207 208/208/208 
f 207/207/207 209/209/209 208/208/208 
f 208/208/208 209/209/209 209/209/209 
f 209/209/209 210/210/210 209/209/209 
f 209/209/209 210/210/210 210/210/210 
f 210/210/210 211/211/211 210/210/210 
f 210/210/210 211/211/211 212/212/212 
f 211/211/211 213/213/213 212/212/212 
f 212/212/212 213/213/213 213/213/213 
f 213/213/213 214/214/214 213/213/213 
f 213/213/213 214/214/214 214/214/214 
f 214/214/214 215/215/215 214/214/214 
f 214/214/214 215/215/215 216/216/216 
f 215/215/215 217/217/217 216/216/216 
f 216/216/216 217/217/217 217/217/217 
f 217/217/217 218/218/218 217/217/217 
f 217/217/217 218/218/218 218/218/218 
f 218/218/218 219/219/219 218/218/218 
f 218/218/218 219/219/219 220/220/220 
f 219/219/219 221/221/221 220/220/220 
f 220/220/220 221/221/221 221/221/221 
f 221/221/221 222/222/222 221/221/221 
f 221/221/221 222/222/222 222/222/222 
f 222/222/222 223/223/223 222/222/222 
f 222/222/222 223/223/223 224/224/224 
f 223/223/223 225/225/225 224/224/224 
f 224/224/224 225/225/225 225/225/225 
f 225/225/225 226/226/226 225/225/225 
f 225/225/225 226/226/226 226/226/226 
f 226/226/226 227/227/227 226/226/226 
f 226/226/226 227/227/227 228/228/228 
f 227/227/227 229/229/229 228/228/228 
f 228/228/228 229/229/229 229/229/229 
f 229/229/229 230/230/230 229/229/229 
f 229/229/229 230/230/230 230/230/230 
f 230/230/230 231/231/231 230/230/230 
f 230/230/230 231/231/231 232/232/232 
f 231/231/231 233/233/233 232/232/232 
f 232/232/232 233/233/233 233/233/233 
f 233/233/233 234/234/234 233/233/233 
f 233/233/233 234/234/234 234/234/234 
f 234/234/234 235/235/235 234/234/234 
f 234/234/234 235/235/235 236/236/236 
f 235/235/235 237/237/237 236/236/236 
f 236/236/236 237/237/237 237/237/237 
f 237/237/237 238/238/238 237/237/237 
f 237/237/237 238/238/238 238/238/238 
f 238/238/238 239/239/239 238/238/238 
f 238/238/238 239/239/239 240/240/240 
f 239/239/239 241/241/241 240/240/240 
f 240/240/240 241/241/241 241/241/241 
f 241/241/241 242/242/242 241/241/241 
f 241/241/241 242/242/242 242/242/242 
f 242/242/242 243/243/243 242/242/242 
f 242/242/242 243/243/243 244/244/244 
f 243/243/243 245/245/245 244/244/244 
f 244/244/244 245/245/245 245/245/245 
f 245/245/245 246/246/246 245/245/245 
f 245/245/245 246/246/246 246/246/246 
f 246/246/246 247/247/247 246/246/246 
f 246/246/246 247/247/247 248/248/248 
f 247/247/247 222/222/222 248/248/248 
f 241/241/241 239/239/239 249/249/249 
f 20/20/20 250/250/250 18/18/18 
f 24/24/24 21/21/21 184/184/184 
f 192/192/192 190/190/190 251/251/251 
f 50/50/50 48/48/48 252/252/252 

